<?xml version="1.0" standalone="no"?>
<!DOCTYPE svg PUBLIC "-//W3C//DTD SVG 1.1//EN" "http://www.w3.org/Graphics/SVG/1.1/DTD/svg11.dtd" >
<svg xmlns="http://www.w3.org/2000/svg">
<metadata>
Created by FontForge 20120731 at Wed Jul 29 18:03:34 2015
 By Ads
</metadata>
<defs>
<font id="iconfont" horiz-adv-x="1024" >
  <font-face 
    font-family="iconfont"
    font-weight="500"
    font-stretch="normal"
    units-per-em="1024"
    panose-1="2 0 6 3 0 0 0 0 0 0"
    ascent="812"
    descent="-212"
    x-height="792"
    bbox="0 -212 1024 812"
    underline-thickness="50"
    underline-position="-100"
    unicode-range="U+0078-E64A"
  />
<missing-glyph horiz-adv-x="374" 
d="M34 0v682h272v-682h-272zM68 34h204v614h-204v-614z" />
    <glyph glyph-name=".notdef" horiz-adv-x="374" 
d="M34 0v682h272v-682h-272zM68 34h204v614h-204v-614z" />
    <glyph glyph-name=".null" horiz-adv-x="0" 
 />
    <glyph glyph-name="nonmarkingreturn" horiz-adv-x="341" 
 />
    <glyph glyph-name="x" unicode="x" horiz-adv-x="1001" 
d="M281 543q-27 -1 -53 -1h-83q-18 0 -36.5 -6t-32.5 -18.5t-23 -32t-9 -45.5v-76h912v41q0 16 -0.5 30t-0.5 18q0 13 -5 29t-17 29.5t-31.5 22.5t-49.5 9h-133v-97h-438v97zM955 310v-52q0 -23 0.5 -52t0.5 -58t-10.5 -47.5t-26 -30t-33 -16t-31.5 -4.5q-14 -1 -29.5 -0.5
t-29.5 0.5h-32l-45 128h-439l-44 -128h-29h-34q-20 0 -45 1q-25 0 -41 9.5t-25.5 23t-13.5 29.5t-4 30v167h911zM163 247q-12 0 -21 -8.5t-9 -21.5t9 -21.5t21 -8.5q13 0 22 8.5t9 21.5t-9 21.5t-22 8.5zM316 123q-8 -26 -14 -48q-5 -19 -10.5 -37t-7.5 -25t-3 -15t1 -14.5
t9.5 -10.5t21.5 -4h37h67h81h80h64h36q23 0 34 12t2 38q-5 13 -9.5 30.5t-9.5 34.5q-5 19 -11 39h-368zM336 498v228q0 11 2.5 23t10 21.5t20.5 15.5t34 6h188q31 0 51.5 -14.5t20.5 -52.5v-227h-327z" />
    <glyph glyph-name="uniE600" unicode="&#xe600;" 
d="M779 365v2l-33 177q-1 6 -4.5 12.5t-8.5 11.5t-11 9t-12.5 6t-13.5 2h-372q-11 0 -22 -5.5t-18.5 -15t-9.5 -20.5l-33 -177v-2q-2 -7 0 -14t6 -11q4 -5 10.5 -8t14.5 -3h476q16 0 25 10q9 11 6 26zM277 366l35 183h396l35 -183h-466zM256 235q-26 0 -44 -18t-18 -44
q0 -12 5 -23.5t13 -20t19.5 -13t24.5 -4.5q26 0 44 18t18 43q0 17 -8.5 31.5t-22.5 22.5t-31 8zM768 235q-26 0 -44 -18t-18 -43.5t18 -43.5t44 -18q13 0 24.5 4.5t19.5 13t13 20t5 23.5q0 39 -34 56q-14 6 -28 6zM959 120l-9 122q-1 19 -7.5 36t-17 31.5t-25 26t-30.5 19.5
l-41 191q-4 17 -12 33.5t-19.5 30.5t-26 25.5t-30.5 20t-33.5 13t-35.5 4.5h-320q-54 0 -100 -37t-57 -90l-41 -191q-16 -8 -30.5 -19.5t-25 -26t-17 -31.5t-7.5 -36l-9 -122q-3 -40 17 -72.5t56 -47.5q8 -32 34 -52.5t60 -20.5q31 0 56 17.5t35 46.5h378q6 -19 19.5 -33.5
t32 -22.5t39.5 -8q34 0 60 20.5t34 52.5q36 15 56 47.5t17 72.5zM855 29q-2 -11 -3 -15t-5 -15t-9.5 -17t-16 -11.5t-24.5 -6.5q-52 -4 -74 56h-422q-7 -18 -15.5 -29t-22 -17.5t-32.5 -6.5q-54 0 -72 68q-62 25 -56 100l8 94q2 33 22 61t52 42l37 193q26 116 143 116h294
q52 0 90.5 -28t52.5 -88l37 -193q13 -6 23.5 -14t19.5 -17.5t15.5 -21t10.5 -24.5t5 -26l8 -94q3 -36 -15.5 -64.5t-50.5 -41.5z" />
    <glyph glyph-name="uniE601" unicode="&#xe601;" 
d="M829 619q-86 86 -201 116.5t-230.5 0t-201 -116.5t-116.5 -201t0 -230t116.5 -201t201 -116.5t230.5 0t201 116.5q51 51 83.5 115.5t42 132.5t0 136t-42 132.5t-83.5 115.5zM716 145q9 -10 9 -23t-9.5 -22.5t-22.5 -9.5t-22 10l-158 158l-158 -158q-10 -10 -23 -10
t-22.5 9.5t-9.5 22.5t9 23l158 158l-158 158q-9 9 -9 22.5t9.5 22.5t22.5 9t23 -9l158 -158l158 158q9 9 22 9t22.5 -9t9.5 -22.5t-9 -22.5l-158 -158z" />
    <glyph glyph-name="uniE602" unicode="&#xe602;" 
d="M960 316q0 -5 -2.5 -9.5t-7 -7t-9.5 -2.5t-9.5 2.5t-7.5 7t-3 9.5q0 1 1 3q-2 12 -4.5 27.5t-12.5 50t-24 66.5t-40 71t-59 69.5t-83.5 55.5t-109.5 35v1q-13 6 -14 19q0 8 6 13.5t14 5.5q2 0 4 -0.5t4 -1.5q16 -3 35 -8.5t54 -20.5t66.5 -34t67.5 -52.5t63 -73.5t47 -99
t24 -127zM505 702v-1h-2q-2 -1 -4 -1t-5 1q-20 0 -43 -2.5t-65.5 -16t-81 -35.5t-84 -66.5t-80.5 -103.5l-1 1q-5 -4 -11 -4q-5 0 -9 2t-6 6t-2 9q0 3 1 6.5t3 5.5q6 12 16 29t43 54.5t72.5 67t105.5 55t141 30.5q1 0 2.5 0.5t2.5 0.5q9 0 14.5 -6t5.5 -14q0 -2 -0.5 -4.5
t-1.5 -4.5t-3 -4l-3 -3q-2 -2 -5 -2zM123 421l-2 -9q-19 -60 -15.5 -112.5t12 -88.5t9.5 -36q2 -3 2 -7q0 -8 -5.5 -13.5t-13.5 -5.5q-15 0 -19 14h-2q-46 86 -11 248l5 21l1 -1q3 5 7.5 7.5t10.5 2.5q9 0 15 -6t6 -14zM140 79q2 8 5 21.5t3.5 54t-8.5 78.5q-1 5 -1.5 14.5
t-1 38.5t3 57t14 67t27 72.5t47.5 68.5t71 60h1q5 5 12 5q4 0 8 -2.5t6.5 -6.5t2.5 -9q0 -7 -5 -12l1 -1q-7 -3 -17.5 -10t-38 -34t-48 -59.5t-36.5 -89t-14 -120.5q2 -6 3.5 -16t5.5 -38t5 -53t-2 -54t-11 -49q-2 -16 -18 -16q-3 0 -5.5 1t-4.5 2t-4 3t-3 4t-2 4.5t-1 4.5
q0 4 1.5 7.5t4.5 6.5h-1zM198 28q0 1 1 4l4 10q3 7 5.5 15.5t5.5 22t4.5 27t2.5 31t0.5 35t-3 38.5t-7.5 41q-1 7 -2 18t0.5 43t7.5 60.5t22.5 63.5t41.5 59q2 2 4.5 5t12.5 12t20.5 18t28 20t35.5 19.5t42 16.5t48.5 11.5t55 2t61.5 -8.5q10 -5 10 -16q0 -4 -2 -8t-6 -6.5
t-8 -2.5t-7 2v-1q-5 1 -12.5 2t-32 2t-48 -1.5t-55.5 -12t-60 -26t-57 -47t-49 -71.5q-1 -3 -3.5 -9.5t-7 -26.5t-6.5 -40t0 -48.5t11 -54.5q1 -6 2.5 -16.5t3.5 -40t0 -56.5t-11.5 -60.5t-26.5 -57.5l-2 2q-4 -3 -10 -3q-8 0 -13.5 5.5t-5.5 13.5t5 14zM243 -30q1 2 3 5.5
t7 13.5t10 19.5t10 22t8 23.5l1 -1q4 11 15 11q7 0 12 -5t5 -12q0 -3 -1 -6q-20 -61 -37 -88q-2 -7 -7 -11.5t-12 -4.5q-5 0 -9.5 2.5t-7 7t-2.5 10.5q1 8 5 13zM313 -55q2 3 4.5 8t10 22t13.5 34t12 42.5t9.5 49.5t2.5 52.5t-7 53.5q-1 6 -2.5 16t-3 37.5t0.5 51t11 49
t26 39.5l1 -1q2 2 4.5 3.5t5.5 1.5q6 0 11 -5t5 -11q0 -2 -0.5 -3.5t-1.5 -3.5l1 -1q-3 -2 -6.5 -6t-10.5 -21t-10.5 -39t-0.5 -60.5t15 -84.5v-5q0 -4 -0.5 -14.5t-2 -22t-3.5 -28.5t-5 -33t-8 -36t-11 -38t-15 -37t-19 -36l-1 1q-5 -5 -12 -5t-12.5 5t-5.5 12.5t5 12.5z
M377 -94q2 3 4.5 8t11 22.5t14.5 34.5t15 44t12 51.5t5 56.5t-4 59q-1 3 -2 9.5t-3.5 25.5t-3.5 36t1 39t7 39t17 31t29 18q4 2 10 3.5t23.5 1.5t32.5 -5.5t31 -23t25 -46.5q1 -9 2.5 -24.5t4.5 -60t-1 -75.5q0 -7 -5 -11.5t-11 -4.5q-5 0 -8.5 2t-5.5 6t-2 9q0 2 1 5h-1
l4 68q-2 138 -68 137h-4q-3 0 -11 -2.5t-14.5 -7t-13.5 -14.5t-11 -23.5t-3.5 -36t6.5 -50.5q1 -7 3 -20t4 -52t-1 -77.5t-17.5 -91t-39.5 -97.5q-1 -5 -3.5 -8.5t-6.5 -5.5t-8 -2q-8 0 -14 5.5t-6 13.5t6 14h-1zM473 -49h1q5 3 10 3q4 0 8 -2t6 -5.5t2 -7.5t-1 -7
q-3 -13 -8.5 -24.5t-10 -17.5t-9 -10.5t-4.5 -5.5q-2 -3 -5.5 -5.5t-8.5 -2.5q-7 0 -11.5 5t-4.5 11q0 8 5 13q8 14 31 56zM486 0q0 4 2 8l-2 1q21 54 22.5 126t-7.5 117l-8 45l1 1q-1 1 -1 2q0 8 6 14t14 6q5 0 9.5 -3t7.5 -7h1q10 -52 13 -103.5t0 -88t-7 -65t-8 -43.5
l-4 -14h-2q-2 -16 -18 -16q-17 4 -19 20zM525 -106q12 17 22 43t15 49t8.5 46t4.5 34t1 13v0q0 5 2 8.5t6 6t8 2.5t8 -2.5t6 -6t2 -8.5q0 -2 -1 -4q-4 -41 -10 -76t-12 -55.5t-12.5 -37t-9.5 -22t-6 -9.5q-3 -15 -18 -15q-8 0 -13.5 6t-5.5 14q0 4 1.5 7.5t3.5 5.5v1z
M646 304q-27 118 -128 117q-29 0 -51 -9v1h-3q-7 0 -12 5t-5 12t4.5 12t11.5 6q33 12 61.5 9.5t51 -12t38.5 -22t24 -21t8 -9.5q23 -40 32 -101.5t6.5 -117t-12 -119t-16.5 -95.5t-14 -58q0 -4 -1 -7t-3.5 -5t-5.5 -3.5t-6 -1.5q-4 0 -8 2.5t-6 6t-2 8.5q0 2 0.5 4t1.5 4
t3 4q49 168 33 374zM673 419q-7 7 -15 14.5t-23.5 19.5t-31 19.5t-38 15t-44 7t-48.5 -5.5q-5 0 -14.5 -2t-34.5 -14t-45 -29.5t-39.5 -52.5t-26.5 -81q2 -5 4 -13.5t7 -33t8 -46.5t2 -48.5t-8 -44.5h-1q0 -4 -3 -8t-7 -6.5t-8 -2.5q-8 0 -14 6t-6 14q0 2 1 4q2 9 4.5 24.5
t0 61t-17.5 87.5q0 3 0.5 10t4 27t10.5 38.5t22 43t35 44t53 36.5t73 25q3 0 8 1t20.5 1.5t31 -1t37.5 -7t43 -14.5t44.5 -26t42.5 -40q5 -2 7.5 -6.5t2.5 -10.5q0 -8 -5.5 -13.5t-13.5 -5.5q-6 0 -11 3.5t-7 9.5zM698 355q-1 3 -1 6q0 8 5.5 14t13.5 6q14 0 19 -14l1 1
q20 -147 17 -246.5t-16 -151.5l-14 -51l-1 2q-2 -2 -3.5 -3t-4 -1.5t-4.5 -0.5q-7 0 -12 5t-5 12q0 2 0.5 4.5t1.5 4.5t3 3q22 138 22 229t-11 136zM781 -4q15 157 0 320q-2 43 -17.5 81t-36 62t-40.5 42t-33 25l-14 8l1 1q-4 5 -4 11q0 2 0.5 4.5t2 4.5t3.5 3.5t4 2t5 0.5
t7 -2v1q25 -9 46.5 -25t37 -35t28 -39.5t20 -39t13 -33.5t7.5 -24l2 -9q9 -68 10 -165t-0.5 -137t-3.5 -63v0v-2q0 -5 -2.5 -9.5t-7 -7t-9.5 -2.5t-9.5 2.5t-7.5 7t-3 9.5q0 4 2 8h-1zM851 259q5 39 0.5 77t-14.5 67t-22.5 55t-26.5 44t-25.5 31.5t-18.5 19.5l-8 7
q-28 26 -63.5 43t-69.5 23t-68.5 7.5t-63.5 -2.5t-51.5 -8t-35.5 -8l-13 -4v1l-1 -1h-1q-3 0 -6 1.5t-5 3.5t-3.5 5t-1.5 7q0 12 12 15q51 19 101 25.5t89.5 1.5t75.5 -15.5t61.5 -24.5t44.5 -27t29 -21l9 -9q35 -28 59.5 -72.5t35 -88t15.5 -83.5t5 -65v-25l-4 2
q-1 -2 -3.5 -4t-5.5 -3t-7 -1q-5 0 -9.5 2.5t-7 7t-2.5 9.5q0 3 1 6zM864 175q0 6 2.5 10.5t7 7t9.5 2.5q14 0 18 -13h2q5 -60 0 -103h-1q0 -8 -5.5 -13.5t-13.5 -5.5q-5 0 -9.5 2.5t-7 7t-2.5 9.5q0 3 1 7q1 30 1 48t-1 36q-1 2 -1 3v2z" />
    <glyph glyph-name="uniE603" unicode="&#xe603;" 
d="M420 442h-1h1zM647 399v330q-22 7 -44 11.5t-45 7t-47 2.5q-94 0 -180 -38l267 -268q29 -17 49 -45zM511 469h11h8v-1h2q1 0 1 -1l-230 231q-71 -37 -124.5 -96t-82.5 -133h405h2h8zM920 485l-268 -275q-9 -12 -19 -23t-23 -20h329q20 66 20 135q0 48 -10 94t-29 89z
M906 513q-37 70 -96 123t-133 82v-394q2 -12 2 -22t-2 -23zM511 134q-11 0 -25 3l232 -233q71 37 125.5 97.5t84.5 135.5h-387q-7 -1 -14.5 -2t-15.5 -1zM378 200v-326q32 -10 65.5 -15t67.5 -5q93 0 178 36l-274 275q-11 7 -20 16t-17 19zM418 440l1 2h-333
q-23 -68 -23 -140q0 -93 37 -177l274 272q9 13 20 24t24 19zM346 327l-233 -231q38 -72 98.5 -127t137.5 -85v379q-3 10 -4 19.5t-1 19.5q0 11 2 25z" />
    <glyph glyph-name="uniE604" unicode="&#xe604;" 
d="M512 747q-73 0 -141 -22.5t-123 -64t-96.5 -96.5t-64 -123t-22.5 -141q0 -91 35.5 -173.5t95.5 -142.5t142.5 -95.5t173.5 -35.5t173.5 35.5t142.5 95.5t95.5 142.5t35.5 173.5t-35.5 173.5t-95.5 142.5t-142.5 95.5t-173.5 35.5zM544 76q0 -4 -1 -7.5t-2.5 -7t-3.5 -6
t-5 -5t-6 -4t-6.5 -2t-7.5 -0.5q-9 0 -16 4t-11.5 11.5t-4.5 16.5v288q0 13 9.5 22.5t22.5 9.5q4 0 8.5 -1t8 -3t6.5 -5t5 -6.5t3 -8t1 -8.5v-288zM512 460q-13 0 -24 6.5t-17.5 17.5t-6.5 24q0 20 14 34t34 14q13 0 24 -6t17.5 -17.5t6.5 -24.5t-6.5 -24t-17.5 -17.5
t-24 -6.5z" />
    <glyph glyph-name="uniE605" unicode="&#xe605;" 
d="M160 492h736q13 0 22.5 9.5t9.5 22.5t-9.5 22.5t-22.5 9.5h-736q-13 0 -22.5 -9.5t-9.5 -22.5t9.5 -22.5t22.5 -9.5zM896 332h-736q-13 0 -22.5 -9.5t-9.5 -22.5t9.5 -22.5t22.5 -9.5h736q13 0 22.5 9.5t9.5 22.5t-9.5 22.5t-22.5 9.5zM896 108h-736q-13 0 -22.5 -9.5
t-9.5 -22.5t9.5 -22.5t22.5 -9.5h736q13 0 22.5 9.5t9.5 22.5t-9.5 22.5t-22.5 9.5z" />
    <glyph glyph-name="uniE606" unicode="&#xe606;" 
d="M694 214h-148v67h148q10 0 18.5 4.5t13 12t4.5 16.5q0 14 -10.5 24t-25.5 10h-129l109 120q7 8 4.5 20t-13.5 21q-7 6 -15 9t-15.5 1.5t-12.5 -6.5l-111 -123l-112 123q-7 8 -19.5 6.5t-23.5 -10.5t-13.5 -21t4.5 -20l110 -120h-99q-10 0 -18 -4.5t-13 -12t-5 -17t5 -17
t13 -12t18 -4.5h119v-67h-119q-10 0 -18 -4.5t-13 -12.5t-5 -17q0 -14 10.5 -24t25.5 -10h119v-92q0 -12 10.5 -20t24.5 -8t24 8t10 20v92h148q8 0 14.5 3t11.5 7.5t7.5 10.5t2.5 13q0 14 -10.5 24t-25.5 10zM513 736q-61 0 -118.5 -15.5t-106.5 -43.5t-90.5 -68.5t-70 -88
t-44.5 -104t-16 -115.5q0 -89 35 -169.5t95 -138.5t142.5 -92.5t173.5 -34.5t173.5 34.5t142.5 92.5t95 138.5t35 169t-35 169.5t-95 139t-142.5 92.5t-173.5 34.5zM513 -67q-76 0 -146 29t-120.5 78.5t-80.5 117.5t-30 143q0 100 50.5 184.5t137.5 134t189 49.5t189 -49.5
t137.5 -134t50.5 -184.5q0 -152 -110.5 -260t-266.5 -108z" />
    <glyph glyph-name="uniE607" unicode="&#xe607;" 
d="M200 345l-1 5l-2 7l-1 4v4v6v5l2 6l2 6l2 7l3 7l4 8l5 8v5l1 5v7l3 8l2 8l2 4l2 3l2 4l3 3v6v6v7l1 10l2 11l3 14l4 14l3 8l3 9l3 7l4 9l4 9l4 9l5 9l7 10l2 5l4 4l6 10l7 10l8 10l9 10l9 9l10 10l11 11l8 6l9 7l9 7l10 6l9 5l11 4l11 6l12 3l11 4l12 4l13 3l12 2l13 3
l13 1l13 2l14 1h13h13h14l14 -2l13 -2l14 -1l13 -3l13 -3l13 -3l14 -4l12 -4l13 -6l13 -5l12 -6l11 -7l11 -7l10 -7l5 -4l4 -2l9 -8l8 -7l8 -8l7 -9l6 -8l7 -8l5 -9l6 -8l5 -10l5 -8l7 -17l4 -9l3 -9l3 -9l2 -8l2 -8l3 -8l4 -15l2 -14l2 -13l2 -10l2 -16v-3l2 -3l5 -8l4 -5
l2 -6l4 -6l3 -8l2 -7l3 -9l1 -8l1 -5l1 -5v-4l-1 -5v-5l-1 -6l-3 -10l-2 -6l-2 -6v-1l1 -2l2 -4l12 -18l10 -13l4 -9l6 -10l6 -10l6 -12l6 -12l7 -15l4 -9l3 -8l3 -9l3 -9l2 -8l3 -8l3 -16l2 -16l2 -14v-8v-7v-6l-1 -7l-2 -12l-2 -11l-3 -10l-2 -4l-2 -5l-2 -4l-2 -4l-3 -3
l-2 -3l-3 -3l-3 -2l-3 -2l-3 -1l-2 -1h-3h-1l-2 1l-5 2l-2 2l-2 1l-3 2l-2 3l-4 4l-5 6l-3 7l-4 5l-4 6l-5 10l-5 11l-1 1h-1l-2 -2l-2 -3l-2 -3l-4 -11l-6 -15l-7 -19l-6 -9l-6 -9l-7 -11l-7 -10l-4 -5l-4 -5l-11 -11l1 -1l1 -1l6 -3l22 -11l9 -5l10 -6l9 -6l8 -7l4 -3
l3 -4l3 -4l2 -4l2 -4l1 -5l1 -4l1 -4l-1 -3v-3l-1 -3l-1 -3l-1 -2l-2 -3l-4 -6l-3 -4l-3 -3l-3 -3l-6 -4l-7 -4l-7 -4l-8 -3l-9 -4l-4 -1l-5 -1l-10 -3l-10 -2l-11 -2l-11 -2l-12 -1l-13 -1h-12h-12h-13l-14 1l-13 1l-13 2l-14 1l-14 2l-14 4l-14 2l-13 4l-14 5l-13 4l-8 2
l-6 3l-4 1l-4 1h-5h-6l-13 1l-7 1l-8 1l-6 -5l-7 -5l-10 -5l-11 -6l-7 -3l-7 -3l-16 -6l-8 -2l-9 -3l-12 -2l-8 -1h-8l-9 -1l-10 -1h-9h-10h-21l-23 1l-22 2l-11 1l-11 2l-11 2l-10 2l-10 3l-10 2l-9 4l-8 3l-8 4l-7 4l-7 5l-2 2l-3 3l-2 3l-2 3l-2 2l-2 3l-2 7v3l-1 3v4
l1 3v4v4v2v5l1 4l1 5l2 4l3 6l2 2l1 2l4 5l4 3l3 2l3 2l4 2l4 2l5 2l5 2l5 1l6 2l6 1h7l8 1l2 1h1v1l-1 2l-4 2l-10 9l-7 5l-8 7l-7 7l-9 10l-9 11l-3 6l-5 6l-4 7l-3 7l-5 8l-3 8l-4 8l-4 10l-3 8l-2 11l-1 1h-1v1h-1l-2 -1v-1l-1 -1l-1 -3l-1 -2l-1 -3l-5 -8l-2 -5l-4 -4
l-4 -5l-4 -6l-5 -5l-5 -5l-5 -5l-6 -3l-6 -4l-6 -2l-6 -2l-7 -1h-1h-1l-1 1l-2 3l-2 1l-2 6l-2 4l-2 5l-1 5l-1 5l-2 11l-1 7v7v15l1 17l1 8l2 9l1 10l3 8l3 10l3 10l4 10l4 10l5 10l4 10l6 10l7 11l7 10l7 10l7 8l7 8l9 9l3 4l5 5l7 6l7 5l11 11l8 6z" />
    <glyph glyph-name="uniE608" unicode="&#xe608;" 
d="M339 661q20 2 41 3h3q11 0 21.5 -1t20.5 -2l16 -2q7 -1 13 -2q5 -1 11 -3q4 -1 9 -2q4 -1 9 -2q3 -1 7 -2t7.5 -2.5t6.5 -2.5t7 -2q2 -1 6 -2l5 -3q3 -1 5.5 -2t5.5 -2t5 -2t5 -3q1 0 4 -2q2 -1 5 -2l4 -2q2 -1 4 -2.5t4 -2.5q3 -1 4 -2l4 -2q1 -1 3 -2.5t3.5 -2.5
t3.5 -2q1 -1 4 -2l1 -1q1 -1 2 -1.5t2 -1.5l1 -1l3 -2q2 -1 3.5 -2t2.5 -3q2 -1 3 -2t3 -2q2 -2 3 -2q0 -1 1 -1l1 -1q3 -2 3 -3q1 0 3 -2l2 -2q0 -1 3 -2q0 -1 2 -3l2 -2q2 -1 3 -2t2 -2.5t2 -2.5l1 -1l1 -1l1 -1l1 -1l2 -2l2 -3q2 -1 2 -2q1 0 2 -1v-1l2 -2q2 -2 2 -3
l1 -1l1 -1v-1q1 -1 2 -1l1 -1v-1l1 -2q1 0 1 -0.5t0.5 -1.5t1.5 -1l1 -2l2 -2q1 -2 2 -3q0 -1 1 -2l1 -1v-1l2 -2v-2l1 -1q1 0 1 -1l1 -1l1 -1v-1v-1l2 -2t1 -1.5t1 -1.5v-1v-1l1 -1l1 -2q1 -1 1 -1.5t1 -1.5v-1l1 -1l1 -1v-2q1 -1 1 -1.5t0.5 -1t0.5 -1.5l1 -2l1 -1v-1
q1 -2 1 -2.5t1 -2.5l1 -2l1 -1v-1q0 -1 1 -2q0 -1 1 -3v-1v-1q1 -1 1 -2l1 -1v-1q0 -1 0.5 -1.5t0.5 -1.5v-2q1 -1 1 -2v0q0 -2 1 -2v-3h1v-2v-1v-1l1 -2v-2l1 -1v-2v-1v0q-4 0 -8.5 0.5t-8.5 0.5q-7 1 -13 1q-4 0 -7.5 -0.5t-7.5 -0.5q-12 0 -24 -2q-8 -1 -14 -2t-11 -3
q-6 -1 -10 -2l-8 -2q-3 -1 -7 -2q-2 -1 -3.5 -1.5t-3.5 -1.5l-6 -2l-6 -2q-3 -1 -5 -2q-3 -2 -5 -3q-1 0 -2.5 -0.5t-2.5 -1.5l-5 -2q-1 -1 -4 -2q-2 -1 -4 -3q-3 -1 -4.5 -2t-3.5 -2l-4 -2l-4 -3l-3 -2q-2 -1 -3.5 -2t-3.5 -2q0 -1 -3 -3l-3 -2q-2 -1 -3 -2l-3 -2l-1 -1
l-1 -2l-3 -2q-2 -1 -3 -2t-3 -2l-2 -2l-1 -2h-2v-2l-2 -1l-1 -1l-1 -2q-1 0 -3 -1l-2 -3l-2 -2l-1 -1l-1 -1l-2 -2l-2 -3q-1 0 -2 -2l-2 -2l-2 -2q-1 -1 -1 -1.5t-1 -1.5l-2 -2q0 -1 -1 -2l-2 -2q-1 -1 -2 -3l-1 -2q-1 0 -1 -1l-1 -1l-1 -1l-1 -1q0 -1 -1 -3l-2 -2l-1 -2
q-1 -1 -1 -2q-1 -2 -2 -3v-1l-1 -1l-1 -1v-1l-2 -1v-1q-1 -2 -1 -3h-1v-1.5t-1 -1.5q0 -1 -0.5 -1t-0.5 -1v-1l-2 -2v-1q-1 -1 -1 -2t-1 -2q0 -1 -1 -2v-1l-0.5 -0.5t-0.5 -1.5l-1 -1v-1v-1l-1 -1q0 -1 -1 -2v-1q-1 -1 -1 -2t-0.5 -1.5t-0.5 -1.5t-1 -1q0 -2 -0.5 -2.5
t-0.5 -2.5l-1 -2v-1l-1 -1v-1v-1q-1 -2 -1 -3v-1h-1v-2q0 -1 -0.5 -1t-0.5 -1v-2q-1 -1 -1 -2v-2v-1l-1 -1v-1v-1q-1 -1 -1 -3v-1v-1l-1 -2v-2q-1 -2 -1 -3v-2v-1q0 -1 -0.5 -1t-0.5 -1v-1v-3q0 -1 -1 -2v-2v-1v-1v-1v-2l-1 -1v-1v-2v-2v-3v-2v-2v-1v-1v-1q-1 -1 -1 -2v-1
v-1v-2v-1v-1v0v-3v-1v-1v-2q1 -2 1 -3v-1v-1v-2v-1v-1v-2v-2q0 -1 0.5 -2.5t0.5 -2.5v-1v-1v-3l0.5 -0.5t0.5 -1.5v-2v-2l1 -2v-3v-1v-1l1 -2v-3l1 -2v-2l1 -2v-2q1 -2 1 -3v-1v-1l1 -1v-1v-1l1 -1v-2h-4h-4q-2 0 -4 -0.5t-4 -0.5h-7h-6h-13q-13 1 -26 3q-3 0 -5.5 0.5
t-5 0.5t-4.5 1q-3 0 -6.5 0.5t-6.5 1.5q-5 1 -12 2q-5 1 -11 3q-5 1 -11 2q-1 0 -3 0.5t-3.5 1t-3.5 0.5l-4 -2l-5 -2l-4 -3l-5 -2l-4 -2l-5 -2l-4 -3l-5 -2l-4 -2l-5 -2l-4 -3l-5 -2l-4 -2l-5 -2l-4 -3l-4 -2l-5 -2l-4 -2l-5 -3l-4 -2l-5 -2l-4 -2l-5 -3l-4 -2l-4 -1l1 1
l1 2v3l1 2l1 2l1 2v3l1 2l1 2l1 2v3l1 2l1 2l1 2v3l1 2l1 2l1 2v3l1 2l1 2l1 2v3l1 2l1 2l1 2v3l1 2l1 2l1 2v3l1 2l1 2l1 2v3l1 2l1 2l1 2v3l1 2l1 2l1 2v2q-1 0 -1 1q-3 1 -3.5 1.5t-2.5 1.5q0 1 -0.5 1t-1.5 1l-1 2q-1 0 -2 0.5t-2 0.5q-1 1 -2 3q-1 0 -3 2q-2 1 -3 2
q-3 2 -3 2.5t-1 0.5l-2 2q-2 1 -2.5 2t-1 1.5t-1.5 0.5q-2 2 -3 2q-1 2 -2 3l-3 2q-1 2 -2 2l-2 2l-3 3l-2 2l-2 2l-2 2l-3 3h-1l-1 2l-2 2q0 1 -1 2h-1v1l-2 2l-2 2l-1 1l-1 1q-1 2 -2 2q-1 2 -1 3l-2 1v1q-1 0 -2 1v1l-2 2q-1 2 -1 3q-1 0 -2 2l-2 2q-1 2 -1 3l-2 1v1
l-1 2l-2 2l-1 2v2h-2v2q-1 0 -1 1q-1 1 -1.5 2t-1.5 2q0 1 -0.5 1.5t-0.5 1t-1 1.5q0 1 -0.5 1t-0.5 1t-1 1q0 1 -1 2l-1 3l-1 2l-1 2q-1 1 -1 2q-1 1 -1 3l-1 2q-1 1 -1 2q-1 1 -1 2q-1 2 -1 3q-1 1 -1 2q-1 1 -1 2t-1 2v2v1l-1 2l-1 2l-1 2q0 2 -0.5 2.5t-1 2t-0.5 2.5v2
q-1 2 -1 2.5t-1 2.5v2q-1 1 -1 2v3l-1 2v2q0 1 -1 2v1v2v2l-1 2v2v3q-1 1 -1 2v2v1v1v2v1q0 1 -1 2v2v2v2v2v2v1v1v1v2v1v2v1v1v2v2v2v2v1v1v1v1v1v2v1v2v1l1 1v1v1v3v1v1v1l1 1v2v1v2v1l1 1v1v1v2l1 2v1v2v1q1 1 1 2v1v1l1 2v2v1l1 1v1v1l1 1v2v1q0 1 1 1v2l1 1v2t1 2v2
q1 1 1 2v2h1q0 2 1 3v2q1 0 1 1v1l1 1v1l1 2v1q1 1 1 2v1l1 1l1 2q0 1 0.5 1.5t0.5 1.5q1 1 1 2l1 1v1l1 2q0 1 0.5 1.5t0.5 1.5l1 2q1 0 1 1t0.5 1.5t0.5 1.5h1q1 2 1 3l2 1q0 1 1 3l1 1v1q0 1 1 3q1 0 2 2l1 1v1l2 2q1 2 1 3q1 0 1 0.5t1 1.5t1 2q1 2 2 3t1 2q2 1 2 2l2 2
q0 1 1 2h1q1 2 1 3q1 0 2 2h1l1 2l2 2v1l2 2l2 2l2 2l2 2l2 3h1l1 2l2 2l3 2q0 1 1 1.5t1 1.5q2 1 2 2q1 0 3 2l2 2q1 1 3 2q2 2 2 3q1 0 3 2q2 1 3 2l3 3q1 1 3 2l3 2q2 2 3 2q1 1 3 2q2 2 3 2.5t3 2.5l3 2l4 2l3 3q3 1 4 2t4 2q3 2 4 2q1 1 3 2l1 1q1 0 2 0.5t2 1.5
q3 2 4 2.5t5 1.5q2 2 4 3q4 1 5 2q3 1 5 2t6 2l5 2q3 2 6 3l6 2q4 1 7 2q3 2 7 3q2 0 3.5 0.5t3.5 1.5q4 1 8.5 2t9.5 2q6 2 11 3l12 2q2 0 4.5 0.5t4.5 0.5t4 0.5t4 0.5zM603 300q-5 0 -9.5 -1.5t-8.5 -5t-7 -7.5t-5 -8.5t-2 -9.5q0 -12 10 -21.5t22 -9.5q17 0 28 9.5
t11 22t-11 22t-28 9.5zM777 300q-5 0 -9.5 -1.5t-8.5 -5t-7 -7.5t-5 -8.5t-2 -9.5q0 -12 10 -21.5t22 -9.5q17 0 28 9.5t11 22t-11 22t-28 9.5zM279 529q-19 0 -33.5 -11t-14.5 -28q0 -12 7 -21t18 -14t23 -5t21 5t13.5 14t4.5 21q0 18 -10.5 28.5t-28.5 10.5zM500 450
q12 0 21 5t14 14t5 21q0 18 -11 28.5t-29 10.5q-19 0 -33 -11t-14 -28q0 -9 4 -16.5t10.5 -12.5t15 -8t17.5 -3zM491 352l1 1l1 1h1q1 1 1 2l2 1v1h1l2 2l2 2h1q1 1 1 2h2v2h2q0 1 1 1l2 2q3 2 3.5 2t1 1t1.5 1l2 2q1 1 3 2q1 1 3 2l3 2l3 2l3 1l3 2l3 2l4 2q1 1 3 2
q1 1 2 1t2 1q3 1 4 2q1 0 2 0.5t2 1.5l4 2l4 2q2 0 5 2q1 0 2 0.5t2 0.5q3 2 5 2l3 1q1 1 3 1q1 1 3 1l2 2h4q1 1 2 1l7 2l7 2l8 2l9 2l10 2l14 2q5 0 9.5 0.5t9 0.5t9 0.5t8.5 0.5h2q17 0 34 -2q3 -1 6.5 -1.5t6.5 -0.5q6 -1 11 -2l8 -2l8 -2q4 -1 7 -2l6 -2q4 -1 6 -2
q2 0 3 -1l3 -1q2 -1 5 -2l5 -2q3 -1 5 -1q2 -2 4 -2l4 -2l4 -2q1 0 1 -1l3 -1q1 -1 4 -2q1 0 4 -1.5t3 -2.5l4 -2q2 -1 3 -2h1l2 -2q1 0 3 -1q1 -1 2 -1.5t1.5 -1t2.5 -1.5l3 -2l2 -1q0 -1 1 -2l3 -1q2 -1 2 -2q1 0 2 -1l1 -1l1 -1h2l1 -2l1 -1h1q1 -1 1 -2l2 -1h1
q1 -2 2 -2l2 -2l1 -1l2 -1l1 -2h1v-1q1 -1 2 -1l1 -1l1 -1l2 -2l1 -1l1 -1l2 -2l2 -2l1 -1l1 -1l1 -1l1 -1q1 -1 1 -1.5t1 -0.5l1 -1l1 -1l1 -1q0 -1 1 -1v-1l2 -2v-1q1 -1 2 -1q1 -1 1 -1.5t0.5 -1t0.5 -1.5q1 0 2 -1v-2h2v-2l2 -2l2 -2v-1l1 -1q1 -1 1 -2q1 0 1 -1t1 -1
l1 -2l1 -1v-1l2 -2l0.5 -1.5t1.5 -1.5v-1l1 -1v-1l1 -1l1 -1v-1l1 -1v-1l1 -2q0 -1 1 -2l1 -2l1 -2q1 -1 1 -2l1 -2l1 -1v-1l1 -1v-2q1 -1 1 -2l1 -2l1 -2l1 -2v-1v-1q0 -1 1 -2l1 -2v-1v-1h1v-1v-1q0 -1 0.5 -1.5t0.5 -1.5l1 -2v-1v-2h1v-1v-1v-1q0 -1 0.5 -1h0.5v-2v-1
l1 -1v-1v-1v-2l1 -2v-2v-1l1 -1v-2v-1v-1v-1q0 -1 0.5 -1h0.5v-2v-2v-2v-1v-1l0.5 -0.5t0.5 -1.5v-1v-2v-1v-2v-1v-1v-1v-1v-1v-1v-1v-2v-2v-2v-1v-2v-1v-1v-2v-2v-1v-1v-2q0 -1 -1 -2v-2v-2v-2l-1 -1v-1v-1v-2v-1q0 -1 -1 -1v-2v-2l-1 -1v-1v-2v-1l-1 -1v-1q0 -1 -1 -2v-2
q0 -1 -1 -2v-2q0 -1 -1 -2q0 -2 -1 -2v-2l-0.5 -0.5t-0.5 -1.5t-1 -2v-2l-1 -2q0 -1 -1 -2q0 -1 -1 -1v-1v-1q-1 -1 -1 -2t-1 -1v-1l-1 -1v-1l-1 -2q0 -1 -1 -2l-1 -2v-1q-1 0 -1 -0.5t-1 -2.5l-1 -2l-1 -1v-2h-1l-1 -2l-1 -2q-1 -2 -1.5 -2.5t-0.5 -1t-1 -0.5q0 -1 -1 -2
l-1 -2l-1 -1v-1q-1 -1 -1.5 -2t-1.5 -2l-1 -1q0 -1 -1 -2h-1q0 -1 -1 -2t-1 -2l-2 -2l-1 -1v-1l-2 -2v-1q-1 0 -1 -1l-1 -1l-1 -1q-1 -1 -1 -2q-1 0 -2 -2l-1 -1h-1l-1 -2l-1 -2h-1l-2 -2l-1 -1v-1q-1 0 -2 -1v-1l-1 -1l-1 -1q-1 0 -2 -2l-2 -2l-2 -2l-2 -2q-1 -1 -2 -1.5
t-2 -1.5l-2 -2q-1 -2 -2 -2l-2 -2l-2 -2l-2 -2l-2 -2l-2 -2l-2 -1l-1 -1q-1 -1 -2 -1q-1 -2 -2 -2q-2 -2 -3 -2v-1l-2 -1l-2 -2l-2 -2h-1l-2 -1v-1l-1 -1v-1l1 -2v-2l1 -2v-1l1 -2l1 -2v-2l1 -2v-2l1 -2v-2l1 -2l1 -2v-2l1 -1v-2l1 -2v-2l1 -2l1 -2v-2l1 -2v-2l1 -2v-2l1 -1
l1 -2v-2l1 -2v-2l1 -2v-2l1 -2l1 -2v-2l1 -2v-1l1 -2l1 -2v-2v-2l-2 2l-3 2l-4 2l-3 2l-4 1l-3 2l-4 2l-3 2l-4 2l-3 2l-4 2l-3 2l-4 2l-3 2l-4 2l-3 1l-4 2l-3 2l-4 2l-3 2l-4 2l-3 2l-4 2l-3 2l-4 2h-1q-3 -1 -8 -2l-8 -2l-8 -2l-8 -2q-5 -1 -9 -2l-10 -2q-7 -1 -13 -2
q-10 -1 -19 -2h-11h-14q-6 1 -12 1.5t-12 0.5q-6 1 -13 2q-2 0 -4 0.5t-3.5 1t-3.5 0.5q-4 1 -9 2q-4 1 -7 2l-8 2l-6 2l-6 2q-3 0 -6 2q-2 0 -5 1.5t-5 1.5q-3 1 -5 2q-3 2 -4 2q-1 1 -2 1t-2 1q-2 1 -5 2q-2 1 -3 2q-3 1 -4 2q-1 0 -3.5 1.5t-3.5 2.5q-1 0 -4 2l-3 1
q-3 2 -3.5 2.5t-3.5 1.5l-2 2q-1 1 -3 2t-3 2q-1 0 -1.5 0.5t-1.5 1l-1 0.5l-2 2l-2 2l-2 1l-1 1h-1l-1.5 1.5t-2.5 1.5v1l-2 1l-2 2q-1 0 -1 1l-1 2h-2l-1 1l-2 2l-1 1l-1 1q-2 1 -2 1.5t-2 2.5h-1l-1 2q-1 0 -2 2q-1 1 -2 1l-2 2l-2 2q-1 2 -1.5 2t-1.5 1v1l-1 1
q0 1 -0.5 1t-1.5 2l-2 2l-1 1q0 1 -1 1h-1v2q-1 1 -2 1q0 1 -1 2l-1 1q0 1 -1 1q0 1 -1 2t-1 2l-2 2v1l-1 1l-1 2q-1 0 -1 0.5t-1 1.5l-1 2v1q-1 0 -1 0.5t-1 1.5v1l-1 1q-1 1 -1 2q-1 1 -1 1.5t-1 0.5v1q0 1 -0.5 1t-1.5 1v1q0 1 -1 2q0 1 -1 2t-1 2l-1 2l-1 2v1q-1 1 -1 2
q-1 1 -1 2t-1 2q0 1 -1 2l-1 2v1q0 1 -0.5 1t-0.5 2l-1 1v1l-1 2v1v1q-1 0 -1 1v2h-1v2q0 1 -1 2v1v1l-1 1v1q0 1 -1 2v2l-1 2v2v2l-1 1v2v1l-1 1v2v1v1q-1 1 -1 2v1v1v1v1v1q-1 0 -1 1v2v1v1v1q0 1 -1 2v2v1v1v2v1v1v1v1v1q0 1 -1 1v2v2v2v1v1v1v2v2v1v1v1v1v2q1 0 1 1v2v2
v2v2v2l1 2v2v1v1v1v1l1 1v1v2v2v1l1 1v1v1v2l1 1v1v2v2h1v1v1q0 1 1 1v1v2q0 1 0.5 1t0.5 1v1q0 1 0.5 1.5t0.5 1.5t0.5 1.5l0.5 0.5v1q0 1 0.5 1.5t0.5 1.5v1l1 1v2l1 1v1q1 1 1 2t1 2v2v0q1 1 1 2l1 1v1l1 1q1 2 1 3v1h1q0 2 1 2v1v1q1 0 1 1v1l1 1q1 1 1 3q1 0 1 1
q1 1 1 1.5t0.5 1t0.5 1.5q1 1 1 1.5t1 0.5q0 2 1 2q0 1 1 2.5t1 2t1 1.5l2 2l1 2l1 1v1l1 2q1 0 1 0.5t1 1.5t1 2h1l1 1q0 1 1 2v1q1 1 2 1l1 2q1 2 2 2l1 2l2 2v1h1l2 2q0 1 1 1q0 1 1 2l1 1l1 1l2 1l1 2l2 2l2 2l1 1l1 1z" />
    <glyph glyph-name="uniE609" unicode="&#xe609;" 
d="M622 303q36 20 63.5 52t42.5 72t15 84q0 100 -70 170t-169 70q-65 0 -120.5 -32t-87.5 -87.5t-32 -120.5q0 -33 9 -65.5t26 -59.5t40 -49t52 -37q-143 -39 -235 -156.5t-92 -266.5v-13q0 -6 1 -14l45 3q-1 5 -1 8v7v9q0 102 49 190.5t134.5 143t187.5 62.5q12 -1 24 -1h7
h7q4 0 7.5 0.5t7.5 0.5q105 -5 192.5 -59t138.5 -143.5t51 -193.5q0 -8 -1 -24l45 -1v8q0 4 0.5 8.5t0.5 8.5q0 75 -26 145.5t-70.5 126t-107 96t-134.5 58.5zM503.5 320q-79.5 0 -135.5 56t-56 135q0 52 25.5 96.5t70 70t96.5 25.5t96 -25.5t69.5 -70t25.5 -96.5
q0 -79 -56 -135t-135.5 -56z" />
    <glyph glyph-name="uniE60A" unicode="&#xe60a;" 
d="M91 690v-804h841v804h-841zM897 -78h-769v730h769v-730zM291 499q7 -88 72.5 -148.5t154.5 -60.5q91 0 156.5 61.5t71.5 150.5q5 5 8 12t3 14q0 15 -10 25t-24.5 10t-25 -10t-10.5 -25q0 -5 2 -10.5t5 -9.5t7 -8q-3 -34 -18.5 -65t-40 -53t-56.5 -35t-68 -13
q-72 0 -124.5 49t-58.5 121q10 10 10 24q0 15 -10 25t-24.5 10t-25 -10t-10.5 -25q0 -18 16 -29z" />
    <glyph glyph-name="uniE60B" unicode="&#xe60b;" 
d="M720 -147h-416q-37 0 -63.5 26.5t-26.5 63.5v714q0 37 26.5 63.5t63.5 26.5h416q25 0 45.5 -12t32.5 -32.5t12 -45.5v-714q0 -50 -43 -76q-22 -13 -47 -14zM304 687q-13 0 -21.5 -8.5t-8.5 -21.5v-714q0 -13 8.5 -21.5t21.5 -8.5h416q13 0 21.5 8.5t8.5 21.5v714
q0 13 -8.5 21.5t-21.5 8.5h-416zM512 -58q-25 0 -42.5 17.5t-17.5 42t17.5 42t42.5 17.5q16 0 30 -8t22 -21.5t8 -29.5q0 -10 -3 -19t-8.5 -16.5t-13 -13t-16.5 -8.5t-19 -3zM512 2v-30v30z" />
    <glyph glyph-name="uniE60C" unicode="&#xe60c;" 
d="M524 188q0 20 -7.5 38.5t-21 31.5t-31.5 21t-38 8q-41 0 -69.5 -29t-28.5 -70q0 -13 3.5 -25.5t10 -23.5t15.5 -20t19.5 -15.5t23.5 -10t26 -3.5q41 0 69.5 29t28.5 69zM389 225q27 -2 36 -2q4 0 13.5 0.5t16.5 0.5l7 1q-1 -27 -1 -36v-7q0 -5 0.5 -10t0.5 -10v-7v-3
q-3 0 -7.5 0.5t-14.5 1t-14 0.5l-37 -2q1 3 1 8t0.5 15t0.5 14zM884 363q0 3 -1.5 5.5t-4.5 4.5t-6 2h-13v0h-58h-256l98 63h1v0q2 2 2 5q0 6 -6 6v0h-120h-1q-4 0 -7.5 -1t-6.5 -4l-303 -193q-1 0 -1 -1v0q-2 -1 -3.5 -2.5t-2.5 -3.5l-2 -2q-1 -2 -1 -4l-2 -4v-4v-1v-69v-1
q0 -3 2 -4.5t4 -1.5h2q1 0 2 1l125 80q13 29 40.5 47t60.5 18h1l39 25h256l-186 -119q1 -8 1 -17q0 -22 -9 -42.5t-23.5 -35.5t-35.5 -23.5t-43 -8.5q-34 0 -61 18l-214 -136q-5 -3 -8 -8.5t-3 -12.5v-1v-78q0 -6 6 -6h2q2 0 2 1l722 462q12 7 12 21v25zM146 280q2 0 4 1
l586 328q11 7 17.5 18.5t6.5 24.5v1v44q0 3 -0.5 5.5t-1 4.5t-2 4t-3 3.5t-3.5 3t-4.5 2.5t-4.5 1.5t-5 0.5h-255l17 13q3 2 3 5q0 6 -6 6v0h-97h-1q-9 0 -16 -6l-202 -156q-2 -2 -2 -5q0 -6 6 -6v0h98q9 0 15 5l120 94h270l-312 -170l-27 36q-8 10 -20 10h-1h-74v0
q-6 0 -6 -6q0 -2 1 -3l56 -76l-150 -82q-13 -7 -13 -21v-2v-72q0 -6 6 -6z" />
    <glyph glyph-name="uniE60D" unicode="&#xe60d;" 
d="M888 514q-6 6 -14.5 8t-16.5 -0.5t-14 -9.5l-427 -454l-233 230q-10 9 -23 9t-22.5 -9.5t-9.5 -23t10 -22.5l256 -253h1q1 -1 7 -4q0 -1 1 -1.5t2 -1.5q6 -2 12 -2q7 1 12 3q1 0 2 1t2 1q5 3 7 5v0l449 479q9 9 9 22.5t-10 22.5z" />
    <glyph glyph-name="uniE60E" unicode="&#xe60e;" 
d="M557 299l266 264q9 9 9 22t-9 23q-6 6 -14.5 8.5t-16.5 0t-15 -8.5l-265 -264l-263 264q-9 9 -22.5 9t-23 -9t-9.5 -22.5t10 -22.5l263 -264l-265 -264q-10 -9 -10 -22.5t9.5 -22.5t22.5 -9t23 9l265 264l265 -267q10 -9 23 -9q3 0 6 0.5t6 1.5t5.5 3t5.5 4q9 10 9 23
t-9 23z" />
    <glyph glyph-name="uniE60F" unicode="&#xe60f;" 
d="M800 -148h-576q-40 0 -68 28t-28 68v640q0 40 28 68t68 28h448q13 0 22.5 -9.5t9.5 -22.5t-9.5 -22.5t-22.5 -9.5h-448q-13 0 -22.5 -9.5t-9.5 -22.5v-640q0 -13 9.5 -22.5t22.5 -9.5h576q13 0 22.5 9.5t9.5 22.5v512q0 13 9.5 22.5t22.5 9.5t22.5 -9.5t9.5 -22.5v-512
q0 -40 -28 -68t-68 -28zM612 364q-13 0 -23 9q-6 7 -8 15t0 16t8 15l318 318q10 9 23 9t23 -9q17 -18 5 -39q-3 -4 -5 -7l-318 -318q-10 -9 -23 -9zM480 364h-192q-13 0 -22.5 9.5t-9.5 22.5t9.5 22.5t22.5 9.5h192q13 0 22.5 -9.5t9.5 -22.5t-9.5 -22.5t-22.5 -9.5z
M672 172h-384q-13 0 -22.5 9.5t-9.5 22.5t9.5 22.5t22.5 9.5h384q13 0 22.5 -9.5t9.5 -22.5t-9.5 -22.5t-22.5 -9.5z" />
    <glyph glyph-name="uniE610" unicode="&#xe610;" 
d="M511 -148q-91 0 -174 35.5t-143 95.5t-95.5 143t-35.5 174t35.5 174t95.5 143t143 95.5t174 35.5t174 -35.5t143 -95.5t95.5 -143t35.5 -174q0 -46 -9 -90.5t-26 -84t-41.5 -76t-55 -66.5t-66.5 -54.5t-76 -41.5t-84 -26t-90 -9zM511 684q-104 0 -192.5 -51.5t-140 -140
t-51.5 -192.5t51.5 -192.5t140 -140t192.5 -51.5t192.5 51.5t140 140t51.5 192.5q0 39 -8 77t-22.5 72t-35.5 65.5t-46.5 57t-57 46.5t-65.5 35.5t-72 22.5t-77 8zM512 39q-67 0 -126.5 29t-100.5 81q-8 11 -6.5 24t12.5 21q2 2 5.5 4t7 2.5t7 0.5t7 -1t6.5 -2.5t6 -3.5
t5 -5q33 -41 79 -63.5t98 -22.5q53 0 99.5 22.5t78.5 64.5q8 11 21 12.5t23.5 -6.5t12.5 -21t-7 -24q-27 -35 -63 -60.5t-78 -38.5t-87 -13zM368 297q-13 0 -24 6.5t-17.5 17.5t-6.5 24v64q0 20 14 34t34 14q13 0 24 -6.5t17.5 -17.5t6.5 -24v-64q0 -13 -6.5 -24
t-17.5 -17.5t-24 -6.5zM656 297q-20 0 -34 14t-14 34v64q0 8 2.5 15t7 13t10.5 10.5t13 7t15 2.5q20 0 34 -14t14 -34v-64q0 -20 -14 -34t-34 -14z" />
    <glyph glyph-name="uniE611" unicode="&#xe611;" 
d="M512 748q-185 0 -316.5 -131.5t-131.5 -316.5t131.5 -316.5t316.5 -131.5t316.5 131.5t131.5 316.5t-131.5 316.5t-316.5 131.5zM695 162q6 -6 8 -14.5t0 -16.5t-8 -14q-10 -10 -23 -10t-23 10l-137 138l-138 -137q-10 -9 -23 -9q-6 0 -12 2.5t-10 7.5q-4 3 -6 6.5
t-3 7.5t-1 8t1 8t3.5 8t5.5 7l138 136l-138 138q-9 9 -9 22.5t9.5 23t22.5 9.5t23 -10l137 -138l138 137q10 9 23 9t22.5 -9.5t9.5 -22.5t-10 -23l-138 -136z" />
    <glyph glyph-name="uniE612" unicode="&#xe612;" 
d="M512 748q-185 0 -316.5 -131.5t-131.5 -316.5t131.5 -316.5t316.5 -131.5t316.5 131.5t131.5 316.5t-131.5 316.5t-316.5 131.5zM512 -84q-104 0 -192.5 51.5t-140 140t-51.5 192.5t51.5 192.5t140 140t192.5 51.5t192.5 -51.5t140 -140t51.5 -192.5t-51.5 -192.5
t-140 -140t-192.5 -51.5zM672 300h-160v224q0 9 -4.5 16t-11.5 11.5t-16 4.5q-7 0 -12.5 -2.5t-10 -7t-7 -10.5t-2.5 -12v-256q0 -13 9.5 -22.5t22.5 -9.5h192q13 0 22.5 9.5t9.5 22.5t-9.5 22.5t-22.5 9.5z" />
    <glyph glyph-name="uniE613" unicode="&#xe613;" 
d="M890 481q-17 18 -39 5q-3 -3 -6 -5l-328 -331l-332 329q-6 7 -14.5 9t-16.5 -0.5t-14 -8.5q-10 -9 -10 -22.5t10 -22.5l353 -350h1l1 -1v-1q10 -9 23 -9t22 9l350 354q3 2 5 5.5t3 6.5t1.5 6.5t0 7.5t-1.5 7t-3 6t-5 6z" />
    <glyph glyph-name="uniE614" unicode="&#xe614;" 
d="M512 -116q-13 0 -23 9l-96 96q-9 10 -9 23t9 23q7 6 15 8t16 0t15 -8l73 -74l73 74q10 9 23 9h224q13 0 22.5 9.5t9.5 22.5v512q0 13 -9.5 22.5t-22.5 9.5h-640q-13 0 -22.5 -9.5t-9.5 -22.5v-512q0 -13 9.5 -22.5t22.5 -9.5h96q13 0 22.5 -9.5t9.5 -22.5t-9.5 -22.5
t-22.5 -9.5h-96q-40 0 -68 28t-28 68v512q0 40 28 68t68 28h640q40 0 68 -28t28 -68v-512q0 -40 -28 -68t-68 -28h-211l-86 -87q-10 -9 -23 -9zM336 300q-20 0 -34 14t-14 34t14 34t34 14t34 -14t14 -34t-14 -34t-34 -14zM528 300q-20 0 -34 14t-14 34t14 34t34 14t34 -14
t14 -34t-14 -34t-34 -14zM720 300q-20 0 -34 14t-14 34t14 34t34 14t34 -14t14 -34t-14 -34t-34 -14z" />
    <glyph glyph-name="uniE615" unicode="&#xe615;" 
d="M799 -88h-639q-26 0 -48 12.5t-35 35t-13 48.5v578q0 40 28 68t68 28h642q40 0 68 -28t28 -68v-94q0 -13 -9 -22.5t-23 -9.5q-8 0 -15.5 4.5t-12 11.5t-4.5 16v94q0 5 -1.5 10t-4.5 9t-7 7t-8.5 4.5t-10.5 1.5h-642q-4 0 -8.5 -1t-8 -3t-6.5 -5t-5 -6.5t-3 -8t-1 -8.5
v-578q0 -9 4.5 -16.5t11.5 -11.5t16 -4h639q14 0 23 9t9 23v98q0 14 9.5 23t23 9t22.5 -9t9 -23v-98q0 -40 -28 -68t-68 -28zM661 298zM630 298q0 8 4.5 15.5t11.5 11.5t15 4q13 0 22.5 -9t9.5 -22q0 -9 -4.5 -16t-11.5 -11t-16 -4q-12 0 -21.5 9t-9.5 22zM896 172h-320
q-26 0 -45 19t-19 45v128q0 26 19 45t45 19h320q26 0 45 -19t19 -45v-128q0 -26 -19 -45t-45 -19zM576 364v-128h320v128h-320z" />
    <glyph glyph-name="uniE616" unicode="&#xe616;" 
d="M672 -100q-20 0 -34 14l-352 352q-14 14 -14 34t14 34l352 352q9 9 21.5 12.5t25 0t21.5 -12.5t12.5 -21.5t0 -25t-12.5 -21.5l-318 -318l318 -318q9 -9 12.5 -21.5t0 -25t-12.5 -21.5q-7 -7 -16 -10.5t-18 -3.5z" />
    <glyph glyph-name="uniE617" unicode="&#xe617;" 
d="M224 204q-40 0 -68 28t-28 68t28 68t68 28t68 -28t28 -68t-28 -68t-68 -28zM512 204q-40 0 -68 28t-28 68t28 68t68 28t68 -28t28 -68t-28 -68t-68 -28zM800 204q-40 0 -68 28t-28 68t28 68t68 28t68 -28t28 -68t-28 -68t-68 -28z" />
    <glyph glyph-name="uniE618" unicode="&#xe618;" 
d="M512 28zM464 28q0 20 14 34t34 14q10 0 19 -4t15 -10.5t10 -15.5t4 -18q0 -13 -6.5 -24.5t-17.5 -17.5t-24 -6q-20 0 -34 14t-14 34zM512 -148q-185 0 -316.5 131.5t-131.5 316.5t131.5 316.5t316.5 131.5t316.5 -131.5t131.5 -316.5t-131.5 -316.5t-316.5 -131.5z
M512 684q-104 0 -192.5 -51.5t-140 -140t-51.5 -192.5t51.5 -192.5t140 -140t192.5 -51.5t192.5 51.5t140 140t51.5 192.5t-51.5 192.5t-140 140t-192.5 51.5zM512 138q-9 0 -16 4.5t-11.5 12t-4.5 15.5v54q0 25 13 50t25.5 39.5t36.5 38.5q18 18 26.5 27t17.5 23t9 24
q0 13 -3.5 25.5t-9.5 23t-15 19.5t-19.5 15.5t-23 10t-25.5 3.5q-40 0 -68 -27.5t-28 -67.5q0 -13 -9.5 -22.5t-22.5 -9.5q-7 0 -12.5 2.5t-10 7t-7 10.5t-2.5 12q0 32 12.5 61.5t34 51t51.5 34t62 12.5q66 0 113 -47t47 -114q0 -22 -12 -45.5t-24 -37t-35 -36.5
q-19 -19 -28.5 -29t-19 -26t-9.5 -28v-54q0 -13 -9.5 -22.5t-22.5 -9.5z" />
    <glyph glyph-name="uniE619" unicode="&#xe619;" 
d="M320 428zM256 428q0 26 19 45t45 19t45 -19t19 -45t-19 -45t-45 -19t-45 19t-19 45zM843 -84h-662q-31 0 -58.5 15.5t-43 43t-15.5 58.5v534q0 48 34.5 82.5t82.5 34.5h662q48 0 82.5 -34.5t34.5 -82.5v-534q0 -48 -34.5 -82.5t-82.5 -34.5zM181 620q-22 0 -37.5 -15.5
t-15.5 -37.5v-534q0 -22 15.5 -37.5t37.5 -15.5h662q22 0 37.5 15.5t15.5 37.5v534q0 22 -15.5 37.5t-37.5 15.5h-662zM224 43h-4q-1 0 -2.5 0.5t-3.5 0.5q-12 4 -18 16t-3 24q2 7 6.5 17.5t15 34.5t25.5 45t34.5 42t46.5 33.5t56 11.5q35 -1 92 -18q24 -7 35.5 -10t35.5 -6
t39 2q6 1 11 4.5t9 8.5t8 14t7 18.5t8 24.5q8 26 13.5 40.5t20 39t31 38t45.5 24.5t65 11q13 0 22.5 -9.5t9.5 -22.5t-9.5 -22.5t-22.5 -9.5q-28 0 -46.5 -6.5t-31 -23t-19.5 -32.5t-17 -46q-5 -16 -8 -24.5t-9 -23t-12.5 -23.5t-15.5 -19t-21.5 -16t-27.5 -8
q-26 -2 -39.5 -3t-36 3t-33 7t-29.5 9q-13 3 -19.5 5t-17.5 4.5t-20.5 4t-18.5 1.5h-1q-22 0 -43 -15.5t-36 -39.5t-25 -45t-16 -38q-6 -23 -30 -23z" />
    <glyph glyph-name="uniE61A" unicode="&#xe61a;" 
d="M826 257l-288 289q-9 9 -23 9l-1 1h-2h-4h-2l-4 -2q-1 0 -3 -1q-6 -2 -11 -7l-259 -259q-10 -9 -10 -22.5t9 -22.5q4 -3 7.5 -5t7.5 -3.5t8 -1.5q13 0 23 10l206 206v-564q0 -13 9.5 -22.5t22.5 -9.5t22.5 9.5t9.5 22.5v565l236 -237q5 -5 11 -7.5t12 -2.5q13 0 22.5 9.5
t9.5 22.5t-9 23zM864 620h-704q-13 0 -22.5 9.5t-9.5 22.5t9.5 22.5t22.5 9.5h704q13 0 22.5 -9.5t9.5 -22.5t-9.5 -22.5t-22.5 -9.5z" />
    <glyph glyph-name="uniE61B" unicode="&#xe61b;" 
d="M512 -148q-185 0 -316.5 131.5t-131.5 316.5t131.5 316.5t316.5 131.5t316.5 -131.5t131.5 -316.5t-131.5 -316.5t-316.5 -131.5zM512 684q-159 0 -271.5 -112.5t-112.5 -271.5t112.5 -271.5t271.5 -112.5t271.5 112.5t112.5 271.5t-112.5 271.5t-271.5 112.5zM694 354
l-158 160q-7 7 -16.5 9t-18.5 -2l-1 -1h-1q-6 -3 -8 -6v0l-160 -159q-9 -9 -9 -22.5t9 -22.5q1 -2 3 -3l2 -2q2 -1 4 -1.5t3.5 -1t3.5 -1t3.5 -1t3.5 -0.5q13 0 22 10l104 103v-305q0 -13 9.5 -22.5t22.5 -9.5t22.5 9.5t9.5 22.5v307l105 -106q9 -10 23 -10q13 1 22 9
q10 10 10 23t-10 23z" />
    <glyph glyph-name="uniE61C" unicode="&#xe61c;" 
d="M761 280l1 1t1 2q2 4 3 9t1.5 10t-0.5 10t-2.5 9.5t-4.5 9t-7 7.5l-353 334q-10 9 -22 12t-24.5 -0.5t-21.5 -13.5q-5 -5 -8.5 -12t-4.5 -14.5t0.5 -15t5 -14t9.5 -12.5l317 -299l-316 -305q-14 -13 -14.5 -33t13.5 -35q7 -7 16 -10.5t19 -3.5q19 0 33 13l350 338l1 1v1
q1 0 1 1h1q2 2 5 7q1 2 1 3z" />
    <glyph glyph-name="uniE61D" unicode="&#xe61d;" 
d="M418 588q0 40 28 68t67.5 28t68 -28t28.5 -68t-28.5 -68t-68 -28t-67.5 28t-28 68zM418 300q0 40 28 68t68 28q26 0 48 -13t35 -35t13 -48q0 -40 -28.5 -68t-67.5 -28q-26 0 -48.5 13t-35 35t-12.5 48zM418 12q0 40 28 68t67.5 28t68 -28t28.5 -68t-28.5 -68t-68 -28
t-67.5 28t-28 68z" />
    <glyph glyph-name="uniE61E" unicode="&#xe61e;" 
d="M640 396h-256q-13 0 -22.5 9.5t-9.5 22.5t9.5 22.5t22.5 9.5h256q13 0 22.5 -9.5t9.5 -22.5t-9.5 -22.5t-22.5 -9.5zM579 268h-195q-13 0 -22.5 9.5t-9.5 22.5t9.5 22.5t22.5 9.5h195q14 0 23 -9.5t9 -22.5t-9 -22.5t-23 -9.5zM962 364q0 104 -60 192.5t-163 140
t-224.5 51.5t-225 -51.5t-163.5 -140t-60 -192.5q0 -87 45.5 -166t127.5 -135q11 -7 24 -4.5t20.5 13.5t5 24t-13.5 20q-69 47 -107 112t-38 136q0 87 51.5 160.5t140 116.5t192.5 43t192.5 -43t140 -116.5t51.5 -160.5t-51.5 -160.5t-140 -116.5t-192.5 -43q-1 0 -3 -1h-2
q-6 1 -11.5 0t-10.5 -3.5t-8.5 -7t-5.5 -9.5q-9 -26 -94 -74q17 58 3 79q-1 2 -3.5 4.5t-4.5 4t-4.5 3t-5.5 2.5t-6 1.5t-6 0.5q-8 0 -15.5 -4.5t-12 -11.5t-4.5 -16t5 -16q-1 -6 -3.5 -14t-5.5 -18t-7 -21t-8.5 -23.5t-8.5 -23.5q-9 -20 7 -35q9 -9 22 -9q4 0 7 0.5t6 2.5
q144 64 188 125q90 2 171.5 32.5t140.5 82t93.5 122t34.5 147.5z" />
    <glyph glyph-name="uniE61F" unicode="&#xe61f;" 
d="M512 44q-13 0 -22.5 9.5t-9.5 22.5v96q0 13 9.5 22.5t22.5 9.5t22.5 -9.5t9.5 -22.5v-96q0 -13 -9.5 -22.5t-22.5 -9.5zM832 -148h-640q-40 0 -68 28t-28 68v352q0 40 28 68t68 28h640q40 0 68 -28t28 -68v-352q0 -40 -28 -68t-68 -28zM192 332q-13 0 -22.5 -9.5
t-9.5 -22.5v-352q0 -13 9.5 -22.5t22.5 -9.5h640q13 0 22.5 9.5t9.5 22.5v352q0 13 -9.5 22.5t-22.5 9.5h-640zM736 332q-13 0 -22.5 9.5t-9.5 22.5v130q0 52 -29.5 96.5t-74 69t-90.5 24.5q-74 0 -132 -52.5t-58 -137.5v-130q0 -13 -9.5 -22.5t-22.5 -9.5t-22.5 9.5
t-9.5 22.5v130q0 76 38 135.5t95 89t121 29.5q23 0 46.5 -5t45.5 -14t43.5 -22t39.5 -29.5t33.5 -37t26.5 -43.5t17 -49.5t6 -53.5v-130q0 -13 -9.5 -22.5t-22.5 -9.5z" />
    <glyph glyph-name="uniE620" unicode="&#xe620;" 
d="M729 315q-1 0 -4.5 1t-4.5 1.5t-4 1.5t-4 2t-3 2t-2.5 2.5t-1.5 3.5t-0.5 4t1.5 5q7 18 10 35.5t0.5 33.5t-9.5 26q-39 55 -190 -7v-1q-23 -9 -22 5l1 5q11 33 8.5 60t-18.5 43q-36 36 -121 3t-169 -115q-63 -63 -97.5 -126.5t-34.5 -119.5q0 -69 55 -123.5t139 -81.5
t177 -27q87 0 163 23t126 60t78.5 80.5t28.5 84.5q0 46 -29.5 76t-72.5 43zM436 -1q-72 -7 -135.5 10.5t-103 53.5t-44.5 83q-7 71 66 129t182.5 68.5t192.5 -32t90 -114t-65.5 -129.5t-182.5 -69zM898 577q-45 46 -106.5 64t-124.5 6q-14 -3 -22 -14.5t-5 -24.5t15.5 -20.5
t26.5 -4.5q44 8 88 -4.5t75.5 -45.5t41 -76t-4.5 -82q-5 -13 1.5 -25t20.5 -16.5t27 2t17 19.5q13 38 12 76.5t-17 76.5t-45 69zM808 495q-21 23 -51 32t-61 3q-12 -3 -18.5 -13t-4 -21.5t13 -18t22.5 -4.5q15 3 29.5 -1.5t24.5 -15.5q5 -4 8 -9.5t4.5 -11t2 -11t0 -11.5
t-2.5 -11q-3 -12 2.5 -22.5t17.5 -14.5q6 -2 11.5 -1t11 3.5t9 6.5t5.5 10q10 28 3.5 58t-27.5 53zM485 308q-54 14 -107.5 -9t-76.5 -70q-24 -47 -3.5 -93t74.5 -63q39 -11 77 -5t70.5 29t47.5 57q22 50 -2 95t-80 59zM430 149.5q-11 -16.5 -31.5 -23t-37.5 1.5
q-12 5 -18 14.5t-5.5 21t7.5 22.5q11 16 31 22.5t37 -1.5q18 -7 23 -24t-6 -33.5zM478 209q-4 -7 -11.5 -9.5t-14.5 0t-8.5 9t1.5 12.5q3 4 7.5 7t9 3.5t9.5 -1.5q3 -1 5.5 -3t3.5 -5t0.5 -6.5t-2.5 -6.5z" />
    <glyph glyph-name="uniE621" unicode="&#xe621;" 
d="M401 -148q-336 0 -336 162q0 37 34 67.5t84.5 49t111.5 28.5v6q-31 24 -51.5 57t-30 73t-13 74.5t-3.5 76.5q0 99 55 155t153 56h7q64 0 111 -25t72 -72.5t25 -113.5q0 -42 -3.5 -76.5t-13 -74.5t-30 -73t-51.5 -57v-6q61 -10 111.5 -28.5t84.5 -49t34 -67.5
q0 -20 -6 -38t-20 -37t-40.5 -34t-64 -27.5t-94 -19t-126.5 -6.5zM405 593q-72 0 -108 -37t-36 -110q0 -21 0.5 -39.5t3 -39.5t6 -38.5t10 -35.5t15 -33t20.5 -28.5t28 -22.5q15 -10 15 -27v-52q0 -12 -8.5 -21t-20.5 -10q-43 -5 -82 -15.5t-64.5 -22.5t-40 -24.5
t-14.5 -22.5q0 -98 272 -98q91 0 155.5 11.5t98 33.5t33.5 53q0 21 -58.5 48.5t-142.5 36.5q-13 1 -21 10t-8 21v52q0 4 1 8t3 7.5t4.5 6.5t6.5 5q26 16 43.5 42.5t25.5 60t11 64.5t3 70q0 147 -144 147h-7zM899 48q-13 0 -22.5 9.5t-9.5 22.5q0 8 -10 18.5t-29 22.5
t-42.5 23t-54 19.5t-61.5 11.5q-12 2 -20 11t-8 21v67q0 17 14 27q29 18 49 48t28.5 63.5t11.5 58t3 47.5q0 125 -121 133q-8 1 -16 1q-13 0 -22.5 9.5t-9.5 22.5q0 7 2.5 12.5t6.5 10t10 7t13 2.5q93 0 147 -53t54 -145q0 -27 -3.5 -55.5t-13.5 -67.5t-33 -76t-56 -62v-22
q53 -10 103.5 -31.5t86 -55t35.5 -68.5q0 -13 -9.5 -22.5t-22.5 -9.5z" />
    <glyph glyph-name="uniE622" unicode="&#xe622;" 
d="M929 524h-75q6 0 13 6t12.5 16t10 20t7.5 20q14 46 -17 87q-2 2 -4 5q-21 17 -44 26t-45.5 10t-46.5 -3.5t-44 -12t-40.5 -18.5t-35 -20t-27.5 -18q-7 -5 -10.5 -13t-3 -16.5t5.5 -15.5q7 -11 20 -13.5t24 5.5l1 1l2 1q13 9 27 18t38 20t45.5 16.5t46 3t42.5 -17.5
q9 -13 5 -27q-6 -16 -24 -31.5t-32 -20.5q-63 -24 -105 -27h-2l-3 -1h-89q-1 0 -2 2.5t-2 3.5q-109 101 -127 113q-88 61 -164.5 70t-128.5 -35l-5 -5q-30 -41 -16 -87q3 -10 7.5 -20t10 -20t12 -16t13.5 -6h-82q-13 0 -23 -10t-10 -23v-160q0 -8 0.5 -12.5t3.5 -9.5
t9.5 -7.5t18.5 -2.5v-313q0 -42 27.5 -72t65.5 -30h646q25 0 46.5 14t34 37.5t12.5 50.5v313q12 0 18.5 2.5t9.5 7.5t3.5 9.5t0.5 12.5v160q0 14 -9 23.5t-22 9.5zM357 525q-22 2 -43 7t-63 21q-13 4 -31 19.5t-23 32.5q-2 7 -1 13.5t5 12.5q16 12 35.5 17t39.5 2t39.5 -9
t39.5 -16t34 -18.5t27 -17.5q3 -2 12 -10t30 -27t31 -28h-126q-1 0 -3 0.5t-3 0.5zM896 460v-96h-764l-4 -1v97h768zM835 -52h-646q-12 0 -20.5 12t-8.5 26v314h704v-314q0 -14 -9 -26t-20 -12z" />
    <glyph glyph-name="uniE623" unicode="&#xe623;" 
d="M511 683q-25 0 -47 -13t-34.5 -35t-12.5 -49q0 -40 27.5 -68t66.5 -28q16 0 30 4.5t26 13.5t20.5 21t13.5 27t5 30q0 40 -28 68.5t-67 28.5zM223.5 683q-39.5 0 -67 -28.5t-27.5 -68.5t27.5 -68t66.5 -28q16 0 30.5 4.5t26 13.5t20 21t13.5 27t5 30q0 40 -27.5 68.5
t-67 28.5zM799 490q39 0 66.5 28t27.5 68q0 27 -12.5 49t-34 35t-47.5 13q-39 0 -66.5 -28.5t-27.5 -68.5t27.5 -68t66.5 -28zM511 395q-39 0 -66.5 -28t-27.5 -68q0 -27 12.5 -49t34.5 -35t47 -13q39 0 67 28.5t28 68.5t-28 68t-67 28zM223.5 395q-39.5 0 -67 -28
t-27.5 -68q0 -20 7.5 -38t20 -31t30 -20.5t36.5 -7.5q16 0 30.5 5t26 14t20 20.5t13.5 26.5t5 31q0 40 -27.5 68t-67 28zM799 395q-39 0 -66.5 -28t-27.5 -68q0 -27 12.5 -49t34 -35t47.5 -13q39 0 66.5 28.5t27.5 68.5q0 53 -44 82q-23 14 -50 14zM511 107q-39 0 -66.5 -28
t-27.5 -68t27.5 -68.5t66.5 -28.5q26 0 47.5 13t34.5 35t13 48.5t-13 49t-34.5 35t-47.5 12.5zM223 107q-25 0 -47 -12.5t-34.5 -35t-12.5 -48.5q0 -40 27.5 -68.5t67 -28.5t67 28.5t27.5 68.5t-27.5 68t-67.5 28zM799 107q-39 0 -66.5 -28t-27.5 -68q0 -27 12.5 -49t34 -35
t47.5 -13q39 0 66.5 28.5t27.5 68.5q0 53 -44 82q-23 14 -50 14z" />
    <glyph glyph-name="uniE624" unicode="&#xe624;" 
d="M832 -116h-640q-40 0 -68 28t-28 68v640q0 40 28 68t68 28h640q40 0 68 -28t28 -68v-640q0 -40 -28 -68t-68 -28zM192 652q-13 0 -22.5 -9.5t-9.5 -22.5v-640q0 -13 9.5 -22.5t22.5 -9.5h640q13 0 22.5 9.5t9.5 22.5v640q0 13 -9.5 22.5t-22.5 9.5h-640z" />
    <glyph glyph-name="uniE625" unicode="&#xe625;" 
d="M727 418.5q-9 9.5 -22.5 9.5t-22.5 -9l-234 -236l-103 106q-9 9 -22.5 9.5t-23 -9t-9.5 -22.5t9 -23l126 -129h1v-1q1 -1 5 -4h2l1 -1l2 -2q6 -2 12 -2q7 0 12 2q1 1 2 1.5t1.5 1t1.5 0.5q4 2 6 4v1l256 259q10 9 9.5 22t-9.5 22.5zM832 -116h-640q-40 0 -68 28t-28 68
v640q0 40 28 68t68 28h640q40 0 68 -28t28 -68v-640q0 -40 -28 -68t-68 -28zM192 652q-13 0 -22.5 -9.5t-9.5 -22.5v-640q0 -13 9.5 -22.5t22.5 -9.5h640q13 0 22.5 9.5t9.5 22.5v640q0 13 -9.5 22.5t-22.5 9.5h-640z" />
    <glyph glyph-name="uniE626" unicode="&#xe626;" 
d="M512 -146q-90 0 -171.5 33.5t-145 97t-97.5 145t-34 170.5q0 59 15 115.5t44.5 107t71.5 92.5q64 64 145.5 97.5t171.5 33.5t171.5 -33.5t145 -97t97.5 -145t34 -170.5t-34 -170.5t-97.5 -145t-145 -97t-171.5 -33.5zM512 682q-77 0 -147 -29t-124.5 -83t-83.5 -123.5
t-29 -146.5t29 -146.5t83.5 -123.5t124.5 -83t147 -29q51 0 99.5 13t92 38t80.5 61q54 54 83 124t29 146.5t-29 146t-83.5 123.5t-124.5 83t-147 29zM736 332h-192v192q0 13 -9.5 22.5t-22.5 9.5t-22.5 -9.5t-9.5 -22.5v-192h-192q-13 0 -22.5 -9.5t-9.5 -22.5t9.5 -22.5
t22.5 -9.5h192v-192q0 -13 9.5 -22.5t22.5 -9.5t22.5 9.5t9.5 22.5v192h192q13 0 22.5 9.5t9.5 22.5t-9.5 22.5t-22.5 9.5z" />
    <glyph glyph-name="uniE627" unicode="&#xe627;" 
d="M800 332h-256v256q0 13 -9.5 22.5t-22.5 9.5t-22.5 -9.5t-9.5 -22.5v-256h-256q-13 0 -22.5 -9.5t-9.5 -22.5t9.5 -22.5t22.5 -9.5h256v-256q0 -13 9.5 -22.5t22.5 -9.5t22.5 9.5t9.5 22.5v256h256q13 0 22.5 9.5t9.5 22.5t-9.5 22.5t-22.5 9.5z" />
    <glyph glyph-name="uniE628" unicode="&#xe628;" 
d="M887 195l-353 350l-1 1h-1v1q-18 17 -39 4q-4 -2 -6 -5l-350 -353q-5 -5 -7.5 -11t-2.5 -12t2.5 -12t7.5 -10q3 -3 6.5 -5t7.5 -3t8 -1q14 0 23 9l328 331l332 -330q10 -9 23 -9q6 0 12 2.5t11 7.5q3 3 5.5 8t3 9.5t0 9.5t-3 9.5t-6.5 8.5z" />
    <glyph glyph-name="uniE629" unicode="&#xe629;" 
d="M516 460q-3 0 -6 1l-356 64q-7 1 -13 5.5t-9.5 11t-3.5 14.5v96q0 40 28 68t68 28h576q40 0 68 -28t28 -68v-96q0 -12 -7.5 -20.5t-18.5 -10.5l-348 -64q-3 -1 -6 -1zM192 583l324 -58l316 58v69q0 13 -9.5 22.5t-22.5 9.5h-576q-13 0 -22.5 -9.5t-9.5 -22.5v-69z
M800 -148h-576q-40 0 -68 28t-28 68v480q0 13 9.5 22.5t22.5 9.5t22.5 -9.5t9.5 -22.5v-480q0 -13 9.5 -22.5t22.5 -9.5h576q13 0 22.5 9.5t9.5 22.5v480q0 13 9.5 22.5t22.5 9.5t22.5 -9.5t9.5 -22.5v-480q0 -40 -28 -68t-68 -28zM608 172q13 0 22.5 9.5t9.5 22.5
t-9.5 22.5t-22.5 9.5h-52l76 73q10 10 10 23t-9 22q-5 5 -10.5 7.5t-12 2.5t-12.5 -2t-10 -7l-77 -73l-73 73q-9 9 -22.5 9t-23 -9.5t-9.5 -22.5t10 -22l74 -74h-51q-9 0 -16.5 -4.5t-11.5 -11.5t-4 -16q0 -13 9 -22.5t23 -9.5h64v-32h-64q-14 0 -23 -9.5t-9 -22.5
q0 -9 4 -16t11.5 -11.5t16.5 -4.5h64v-64q0 -14 9.5 -23t22.5 -9t22.5 9t9.5 23v64h64q6 0 12 2.5t10.5 7t7 10t2.5 12.5q0 13 -9.5 22.5t-22.5 9.5h-64v32h64z" />
    <glyph glyph-name="uniE62A" unicode="&#xe62a;" 
d="M896 389l-1 5q0 8 -3.5 14.5t-10.5 10.5l-42 29l26 46q8 13 2 28q-40 94 -123 155q-13 10 -28 5l-49 -15l-19 48q-2 3 -4 6.5t-4.5 6t-6 4t-6.5 2.5q-99 28 -197 0l-6 -2q-3 -1 -5 -3l-4 -4q-2 -2 -4 -4.5t-3 -5.5l-19 -48l-49 15q-15 4 -28 -5q-83 -61 -123 -155
q-6 -15 2 -28l26 -46l-42 -29q-3 -2 -5 -4t-4 -5l-2 -4q-2 -3 -2.5 -6t-0.5 -6v-4q-1 -8 -1 -13q0 -46 11.5 -91t33.5 -86q7 -14 23 -16l50 -8l-3 -51q-1 -3 -0.5 -6t1.5 -5l2 -6q1 -2 3 -4.5t4 -4.5q78 -68 179 -86q2 -1 5 -1t6 0.5t6 1.5t5.5 3t4.5 4l37 34l37 -34
q12 -11 27 -8q101 18 179 86q12 10 10 26l-3 51l50 8q16 2 24 16q44 83 44 177v12zM528 204q-73 0 -124.5 51.5t-51.5 124.5q0 36 14 68.5t37.5 56t56 37.5t68.5 14q73 0 124.5 -51.5t51.5 -124.5q0 -24 -6.5 -47t-17.5 -42t-27.5 -35.5t-35.5 -27.5t-42 -17.5t-47 -6.5z
M778 61q-39 -31 -84 -52t-94 -30q-5 0 -11 1l28 -106q7 -20 27 -24h6q8 0 15 3t12 9l50 58l94 -23q23 -6 37 12q6 9 6 20t-6 21zM468 -21q-3 0 -6 1q-33 6 -65.5 17.5t-62 29t-55.5 39.5l-82 -118q-13 -20 1 -38.5t37 -12.5l93 23l50 -57q11 -13 27 -13l7 1q20 4 26 25
l31 103h-1z" />
    <glyph glyph-name="uniE62B" unicode="&#xe62b;" 
d="M512 -146q-91 0 -173.5 35.5t-142 95t-95 142t-35.5 173.5q0 61 16 118.5t45 106.5t70 90t90 70t106.5 45t118.5 16q91 0 173.5 -35.5t142 -95t95 -142t35.5 -173.5q0 -61 -16 -118.5t-45 -106.5t-70 -90t-90 -70t-106.5 -45t-118.5 -16zM512 682q-104 0 -192 -51
t-139 -139t-51 -192t51 -192t139 -139t192 -51t192 51t139 139t51 192t-51 192t-139 139t-192 51zM512 508zM464 508q0 20 14 34t34 14t34 -14t14 -34t-14 -34t-34 -14t-34 14t-14 34zM512 44q-13 0 -22.5 9.5t-9.5 22.5v288q0 13 9.5 22.5t22.5 9.5t22.5 -9.5t9.5 -22.5
v-288q0 -13 -9.5 -22.5t-22.5 -9.5z" />
    <glyph glyph-name="uniE62C" unicode="&#xe62c;" 
d="M512 748q-185 0 -316.5 -131.5t-131.5 -316.5t131.5 -316.5t316.5 -131.5t316.5 131.5t131.5 316.5t-131.5 316.5t-316.5 131.5zM512 -84q-159 0 -271.5 112.5t-112.5 271.5t112.5 271.5t271.5 112.5t271.5 -112.5t112.5 -271.5t-112.5 -271.5t-271.5 -112.5zM641 300
q13 0 22.5 9.5t9.5 22.5t-9.5 22.5t-22.5 9.5h-97v15l119 124q9 10 8.5 23t-9.5 22q-5 5 -11 7t-12 2t-12 -2.5t-10 -7.5l-102 -107l-107 108q-10 9 -23 9t-23 -9q-4 -5 -6.5 -11t-3 -12t2 -12t7.5 -11l118 -118v-20h-95q-13 0 -22.5 -9.5t-9.5 -22.5t9.5 -22.5t22.5 -9.5
h95v-64h-95q-13 0 -22.5 -9.5t-9.5 -22.5t9.5 -22.5t22.5 -9.5h95v-95q0 -13 9.5 -22.5t22.5 -9.5t22.5 9.5t9.5 22.5v95h97q13 0 22.5 9.5t9.5 22.5t-9.5 22.5t-22.5 9.5h-97v64h97z" />
    <glyph glyph-name="uniE62D" unicode="&#xe62d;" 
d="M859 -52h-694q-42 0 -71.5 29.5t-29.5 71.5v502q0 42 29.5 71.5t71.5 29.5h694q16 0 31.5 -5t28 -14.5t22 -22t14.5 -28t5 -31.5v-502q0 -42 -29.5 -71.5t-71.5 -29.5zM165 588q-15 0 -26 -11t-11 -26v-502q0 -10 5 -18.5t13.5 -13.5t18.5 -5h694q15 0 26 11t11 26v502
q0 15 -11 26t-26 11h-694zM800 396h-576q-13 0 -22.5 9.5t-9.5 22.5t9.5 22.5t22.5 9.5h576q13 0 22.5 -9.5t9.5 -22.5t-9.5 -22.5t-22.5 -9.5zM320 76h-96q-13 0 -22.5 9.5t-9.5 22.5t9.5 22.5t22.5 9.5h96q13 0 22.5 -9.5t9.5 -22.5t-9.5 -22.5t-22.5 -9.5z" />
    <glyph glyph-name="uniE62E" unicode="&#xe62e;" 
d="M244 187q-13 0 -22 9t-9.5 22.5t8.5 22.5q59 60 135 92.5t160 32.5q82 0 156.5 -31t133.5 -89q9 -10 9 -23t-9.5 -22.5t-22.5 -9.5t-23 9q-101 102 -244 102q-71 0 -135 -27.5t-114 -77.5q-9 -10 -23 -10zM97.5 350q-13.5 0 -22.5 9q-6 6 -8.5 14t0 16.5t8.5 14.5
q58 59 129 100t150 62.5t162 21.5q123 0 235.5 -46.5t200.5 -133.5q10 -9 10 -22t-9.5 -22.5t-22.5 -9.5t-23 9q-52 52 -115 88t-133 54.5t-143 18.5q-113 0 -215 -42.5t-181 -122.5q-9 -9 -22.5 -9zM511 -21q-12 0 -21 9l-96 88q-9 9 -9.5 22t7.5 23q48 55 119 55
q76 0 123 -60q8 -10 7 -22.5t-11 -21.5l-98 -85q-3 -2 -6.5 -4t-7 -3t-7.5 -1zM464 99l48 -45l50 43q-22 14 -49 14.5t-49 -12.5z" />
    <glyph glyph-name="uniE62F" unicode="&#xe62f;" 
d="M190.5 -149q-13.5 0 -22.5 9.5t-9 22.5q0 53 59 89t167 51v10q-23 18 -41 41.5t-28 51.5t-16.5 52t-9 56.5t-3 50t-0.5 47.5q0 104 58.5 163.5t161.5 59.5h7q104 0 162 -59.5t58 -163.5v-32q-1 -8 -5 -15.5t-11.5 -11.5t-16.5 -4q-13 1 -22.5 10.5t-9 22.5t0.5 30
q0 159 -156 159h-7q-156 0 -156 -159q0 -46 2.5 -78t10 -68.5t25.5 -64t45 -44.5q7 -5 11 -12t4 -15v-55q0 -8 -3.5 -15t-10.5 -11.5t-15 -5.5q-91 -9 -144 -32.5t-53 -47.5q0 -13 -9.5 -22.5t-23 -9.5zM833.5 -149q-13.5 0 -22.5 9.5t-9 22.5q0 15 -22 30.5t-68.5 29.5
t-107.5 20q-12 1 -20.5 10.5t-8.5 21.5v55q0 13 9.5 22.5t23 9.5t22.5 -9.5t9 -22.5v-27q72 -10 123 -29.5t77.5 -47.5t26.5 -63q0 -13 -9.5 -22.5t-23 -9.5zM612 139q-19 0 -38.5 1t-28.5 2t-11 1q-11 4 -17.5 14.5t-4 22.5t12.5 19.5t22 6.5q30 -4 66 -3.5t68 4.5t57 15
t32 27q6 12 18.5 16.5t24.5 -1.5t16.5 -18.5t-1.5 -24.5q-12 -25 -36.5 -42t-56.5 -25.5t-61.5 -11.5t-61.5 -3zM896 172q-13 0 -22.5 9.5t-9.5 22.5v112l-43 15q-21 8 -21 30q0 121 -84.5 206t-203.5 85q-78 0 -144.5 -39t-105 -106t-38.5 -146q0 -8 -3.5 -14.5t-9.5 -11.5
l-19 -13v-118q0 -13 -9.5 -22.5t-22.5 -9.5t-22.5 9.5t-9.5 22.5v134q0 6 1.5 10.5t4.5 8.5t7 7l19 14q3 56 22 107.5t52 93t75.5 72.5t94.5 48t108 17q92 0 170.5 -44t127 -120.5t53.5 -167.5l44 -15q6 -3 11 -7.5t7.5 -10.5t2.5 -13v-134q0 -13 -9.5 -22.5t-22.5 -9.5z
" />
    <glyph glyph-name="uniE630" unicode="&#xe630;" 
d="M133 626q-23 0 -37.5 -4.5t-22 -16t-10 -26.5t-2.5 -41v-553q0 -44 14 -59t59 -15h712q47 0 65 15.5t19 58.5v197q0 8 -10 20.5t-18 12.5t-20.5 -12.5t-12.5 -20.5v-208h-747v590h283q4 0 9 3t9.5 7.5t7.5 10t3 8.5t-1.5 6.5t-4.5 7t-7 7t-8 6.5t-7.5 4.5t-6.5 1.5h-266z
M959 565q8 42 -2.5 57.5t-49.5 25.5l-242 40q-9 2 -23 -6.5t-16 -15.5q-1 -3 0 -7t3 -8t4.5 -8t5.5 -7.5t6 -6t6 -2.5l200 -31l-1 -2q-8 -1 -23 -4t-60 -20t-90 -43t-105.5 -79t-113.5 -121q-38 -48 -70 -97.5t-45.5 -74.5t-13.5 -26q-4 -8 -2.5 -15t7 -13t14.5 -9
q6 -2 13 -1.5t12.5 3t10.5 7t7 10.5q3 8 9.5 23t36.5 64.5t73 103.5q120 154 365 242l9 3l1 1h1l1 1h1h1l-77 -175q-1 -3 0.5 -8t4 -9.5t6 -9t7 -7.5t6.5 -3q8 -2 21 8t15 18z" />
    <glyph glyph-name="uniE631" unicode="&#xe631;" 
d="M511 230q-7 0 -14.5 1.5t-14.5 4t-14 6t-13 8.5l-344 290q-8 7 -8.5 17.5t6 18.5t17 9t18.5 -6l344 -290q10 -8 23 -8t23 8l344 290q8 7 18.5 6t17 -9t5.5 -18.5t-9 -17.5l-344 -290q-24 -20 -55 -20zM868 -70h-712q-39 0 -66.5 27.5t-27.5 65.5v531q0 39 27.5 66.5
t66.5 27.5h712q39 0 66.5 -27.5t27.5 -66.5v-531q0 -25 -12.5 -46.5t-34 -34t-47.5 -12.5zM156 597q-18 0 -30.5 -12.5t-12.5 -30.5v-531q0 -8 3.5 -16t9 -13.5t13.5 -9t17 -3.5h712q18 0 30.5 12.5t12.5 29.5v531q0 18 -12.5 30.5t-30.5 12.5h-712z" />
    <glyph glyph-name="uniE632" unicode="&#xe632;" 
d="M256 365h511v-64h-511v64zM256 235h511v-64h-511v64zM256 492h511v-64h-511v64zM902 748h-780q-24 0 -41 -17t-17 -41v-778q0 -24 17 -41t41 -17h780q11 0 22 4.5t18.5 12.5t12.5 18.5t5 22.5v778q0 24 -17 41t-41 17zM895 -82h-768v768h768v-768zM256 108h511v-64h-511
v64z" />
    <glyph glyph-name="uniE633" unicode="&#xe633;" 
d="M512 748q-73 0 -141.5 -22.5t-123.5 -64t-96.5 -96.5t-64 -123.5t-22.5 -141.5q0 -91 35.5 -174t95.5 -143t143 -95.5t174 -35.5t174 35.5t143 95.5t95.5 143t35.5 174q0 73 -22.5 141.5t-64 123.5t-96.5 96.5t-123.5 64t-141.5 22.5zM543 683q53 -4 101 -22t90 -48
l-191 -227v297zM512 -84q-98 0 -186.5 51t-143 140.5t-54.5 192.5q0 99 46.5 184.5t127.5 138t179 60.5v-308v-88l62 -62l217 -217q-33 -29 -72.5 -49.5t-84 -31.5t-91.5 -11zM804 52l-250 250l228 271q54 -53 84 -123.5t30 -149.5q0 -141 -92 -248z" />
    <glyph glyph-name="uniE634" unicode="&#xe634;" 
d="M512 452q-65 0 -110 -45t-45 -109q0 -32 12 -60.5t33 -49.5t49.5 -33t60.5 -12q64 0 109 45t45 110q0 31 -12 59.5t-33 49.5t-49.5 33t-59.5 12zM512 204q-26 0 -47.5 12.5t-34 34t-12.5 47.5q0 12 3.5 24t9.5 22.5t14.5 19t19 14.5t22.5 9.5t25 3.5q38 0 65.5 -27.5
t27.5 -66t-27.5 -66t-65.5 -27.5zM950 384q-3 19 -21 24q-12 4 -23.5 9.5t-22 12.5t-20 15.5t-17.5 19t-15 21.5q-34 60 -20 124q1 4 1 8.5t-1.5 8.5t-3.5 7.5t-5 6.5q-63 54 -143 82q-5 2 -10.5 1.5t-10.5 -2.5t-10 -6q-50 -46 -117 -46q-32 0 -62.5 12t-54.5 34
q-12 12 -31 7q-76 -24 -142 -82q-14 -14 -10 -31q7 -31 2 -63t-22 -61q-35 -59 -99 -80q-8 -2 -14 -8.5t-7 -14.5q-2 -17 -3.5 -30t-2.5 -27t-1 -26q0 -44 7 -82q2 -17 21 -24q65 -21 99 -80q35 -58 20 -122q-1 -6 -0.5 -11.5t3 -11t7.5 -8.5q62 -54 142 -83q3 -1 10 -1
q5 0 10.5 2t7.5 5q51 46 117.5 46t117.5 -46q6 -5 14.5 -7t17.5 1q80 29 142 83q14 14 10 31q-7 31 -2 63t22 61q35 59 99 80q8 2 14 8.5t7 14.5q7 51 7 83q0 44 -7 82zM892 247q-37 -15 -66 -40.5t-48 -59.5q-40 -70 -29 -150q-43 -34 -94 -54q-30 24 -67.5 37t-76.5 13
q-78 0 -144 -50q-48 20 -93 54q11 79 -30 148q-9 17 -21 32t-26.5 28t-31.5 23.5t-35 17.5q-2 14 -3 28t-1 26q0 26 4 55q76 30 114 100q40 70 30 150q44 36 93 54q31 -24 68 -37t76 -13q78 0 144 50q49 -20 94 -54q-11 -80 29 -150q41 -68 114 -99q5 -29 5 -54
q0 -13 -1.5 -26.5t-3.5 -28.5z" />
    <glyph glyph-name="uniE635" unicode="&#xe635;" 
d="M64 557h448v-65h-448v65zM64 78h448v-65h-448v65zM576 172h383v-64h-383v64zM576 -20h383v-64h-383v64zM256 748h64v-447h-64v447zM587 388l316 317l46 -46l-316 -317zM903 342l-316 317l46 45l316 -316z" />
    <glyph glyph-name="uniE636" unicode="&#xe636;" 
d="M867 537l-34 -24q39 -39 63.5 -93t24.5 -107q0 -111 -79 -190q-87 -86 -190 -86h-281v72l-162 -113h172h262q131 0 224 92.5t93 224.5q0 63 -24 121t-69 103zM182 477q19 19 41 34.5t46 27t50 18t53 6.5h281v-71l163 112h-435q-131 0 -224 -92q-30 -30 -50.5 -66
t-31.5 -76t-11 -82q0 -131 93 -224l32 26q-39 39 -62.5 91.5t-23.5 105.5q0 111 79 190z" />
    <glyph glyph-name="uniE637" unicode="&#xe637;" horiz-adv-x="1000" 
d="M68 3h873q7 0 12 5t5 12v521q0 8 -5 13t-12 5h-873q-5 0 -9 -2.5t-6 -6.5t-2 -9v-521q3 -15 17 -17zM84 143q13 -8 41 -19q25 -10 29 -14q3 -4 12 -24q13 -33 25 -48h-107v105zM818 38l6 8l4 8q3 4 4.5 8t4 8.5t3.5 7.5t3 8q3 7 4.5 10t3.5 7.5t4 6.5q4 4 29 14q9 4 14 6
t12.5 6t13.5 7v-105h-106zM924 418q-12 8 -40 19q-8 4 -12 5.5t-9.5 4.5t-7.5 5t-5 8t-7 16q-13 32 -25 48h106v-106zM191 524q-3 -5 -6.5 -10t-6 -9.5t-5 -10.5t-4 -9t-3.5 -9q-9 -20 -12 -24q-2 -2 -7.5 -5t-9.5 -4.5t-12 -5.5q-28 -11 -41 -19v106h107zM84 362q0 6 3 11
t7 9t11.5 8t14 7t17.5 8q31 12 41 22q3 3 5.5 6.5t5 9t3.5 9.5l5 10q13 32 26.5 47t40.5 15h481q14 0 24.5 -4.5t18.5 -13.5t13 -18.5t11 -25.5q11 -27 19 -35q6 -6 15.5 -11t25.5 -11q11 -5 17.5 -8t14 -7t11.5 -8t6.5 -9t2.5 -11v-162q0 -10 -7 -18t-17 -13t-28 -12
q-32 -13 -41 -23q-8 -8 -19 -34q-9 -22 -15.5 -33.5t-19.5 -20t-32 -8.5h-481q-27 0 -40.5 15t-26.5 47q-11 26 -19 34q-7 7 -16 11.5t-25 11.5q-27 11 -40 20t-13 23v162zM504.5 68q76.5 0 130.5 63q53 62 53 149.5t-53 150.5q-26 30 -60 46.5t-71 16.5q-76 0 -130 -63
q-53 -63 -53 -150.5t53 -149.5q54 -63 130.5 -63zM504 459q31 0 58.5 -14.5t47.5 -38t32 -56.5t12 -69q0 -48 -20 -89t-54.5 -65t-75.5 -24q-61 0 -105 52t-44 126q0 48 20 89t54.5 65t74.5 24zM421 285v-33h66v-28h-66v-33h66v-62h33v62h66v33h-66v28h66v33h-55l68 127h-36
l-58 -109l-1 -3q-1 1 -1 2l-57 110h-37l67 -127h-55z" />
    <glyph glyph-name="uniE638" unicode="&#xe638;" 
d="M512 766q-4 -4 -10 -11.5t-29 -28.5t-49 -40.5t-68 -43.5t-87.5 -41t-108 -28.5t-127.5 -11.5q0 -7 1 -19.5t6 -52.5t13.5 -80.5t26.5 -97.5t41.5 -110t60.5 -112.5t82.5 -109.5t109 -96.5t138.5 -78.5q94 40 171.5 104.5t126 132t85 145t54 139.5t28 121t12.5 83t2 32
q-240 0 -414 142q-43 35 -65 63zM512 -142q-254 117 -366 413q-18 46 -31 95.5t-19 82.5t-10 65q90 6 172 32q43 14 83.5 33t77.5 43q51 33 93 73q12 -12 24.5 -23t30.5 -24t37 -26q38 -24 78 -43t83 -33q41 -13 84.5 -21t87.5 -11q-14 -123 -58 -240q-56 -148 -148 -252.5
t-219 -163.5zM647 366q-4 6 -9.5 9t-12 3t-12.5 -3l-76 -44v88q0 10 -7.5 17.5t-17.5 7.5t-17.5 -7.5t-7.5 -17.5v-88l-76 44q-6 3 -12.5 3t-12 -3t-9.5 -9q-5 -9 -2 -19t11 -15l76 -44l-76 -44q-8 -5 -11 -15t2 -19q4 -6 9.5 -9t12 -3t12.5 3l76 44v-88q0 -10 7.5 -17.5
t17.5 -7.5t17.5 7.5t7.5 17.5v88l76 -44q9 -5 19 -2.5t15 11.5q3 6 3 12.5t-3.5 12.5t-8.5 9l-76 44l76 44q8 5 11 15t-2 19z" />
    <glyph glyph-name="uniE639" unicode="&#xe639;" 
d="M962 562h-900q-16 0 -29.5 -8t-21.5 -21.5t-8 -29.5v-430q0 -24 17.5 -41.5t41.5 -17.5h900q24 0 41.5 17.5t17.5 41.5v430q0 12 -4.5 23t-12.5 19t-19 12.5t-23 4.5zM969 73q0 -7 -7 -7h-900q-7 0 -7 7v430q0 3 2 5t5 2h900q7 0 7 -7v-430zM335 259l-50 29l50 29
q6 3 7.5 9.5t-1.5 12.5q-2 4 -6 6t-8 2t-8 -2l-50 -29v57q0 4 -1.5 7t-3.5 5t-5 3t-6 1t-6 -1t-5.5 -3t-3.5 -5t-1 -7v-57l-50 29q-6 3 -12.5 1.5t-9.5 -7.5t-1.5 -12.5t7.5 -9.5l50 -29l-50 -29q-6 -3 -7.5 -9.5t1.5 -12.5t9.5 -7.5t12.5 1.5l50 29v-57q0 -5 2 -8.5
t5.5 -5.5t8 -2t8.5 2t6 5.5t2 8.5v57l50 -29q5 -3 11.5 -1.5t10 7.5t2 12.5t-7.5 9.5zM600 339q-2 4 -6 6t-8 2t-8 -2l-50 -29v57q0 5 -2 8.5t-6 5.5t-8 2q-2 0 -4 -0.5t-4 -1.5t-3.5 -2.5t-2.5 -3t-1.5 -3.5t-0.5 -5v-57l-50 29q-6 3 -12.5 1.5t-9.5 -7.5q-2 -4 -2 -8.5
t2 -8t6 -5.5l50 -29l-50 -29q-6 -3 -7.5 -9.5t1.5 -12.5q2 -4 6 -6t8 -2t8 2l50 29v-57q0 -7 4.5 -11.5t11.5 -4.5t11.5 4.5t4.5 11.5v57l50 -29q4 -2 8 -2t8 2t6 6q3 6 1.5 12.5t-7.5 9.5l-50 29l50 29q6 3 7.5 9.5t-1.5 12.5zM853 259l-50 29l50 29q6 3 7.5 9.5t-1.5 12.5
t-9.5 7.5t-12.5 -1.5l-50 -29v57q0 5 -2 8.5t-5.5 5.5t-8 2t-8.5 -2t-6 -5.5t-2 -8.5v-57l-50 29q-5 3 -11.5 1.5t-10 -7.5t-2 -12.5t7.5 -9.5l50 -29l-50 -29q-6 -3 -7.5 -9.5t2 -12.5t10 -7.5t11.5 1.5l50 29v-57q0 -7 4.5 -11.5t11.5 -4.5t11.5 4.5t4.5 11.5v57l50 -29
q6 -3 12.5 -1.5t9.5 7.5q2 4 2 8.5t-2 8t-6 5.5z" />
    <glyph glyph-name="uniE63A" unicode="&#xe63a;" 
d="M512 -160q-91 0 -174 35q-81 34 -143 96t-96 143q-35 83 -35 174t35 174q12 27 26.5 52t32 47.5t37.5 43.5q62 62 143 96q83 35 174 35t174 -35q40 -17 76 -41t67 -55q62 -62 96 -143q35 -83 35 -174t-35 -174q-34 -81 -96 -143t-143 -96q-83 -35 -174 -35zM512 710
q-114 0 -211.5 -56.5t-154 -154t-56.5 -211.5t56.5 -211.5t154 -154t211.5 -56.5t211.5 56.5t154 154t56.5 211.5q0 86 -33.5 164t-90 134.5t-134.5 90t-164 33.5z" />
    <glyph glyph-name="uniE63B" unicode="&#xe63b;" 
d="M512 748q-185 0 -316.5 -131.5t-131.5 -316.5t131.5 -316.5t316.5 -131.5t316.5 131.5t131.5 316.5t-131.5 316.5t-316.5 131.5zM512 -20q-20 0 -34 14t-14 34t14 34t34 14q13 0 24 -6.5t17.5 -17.5t6.5 -24q0 -32 -29 -45q-10 -3 -19 -3zM601 307q-19 -19 -28.5 -29
t-19 -26t-9.5 -28v-54q0 -13 -9.5 -22.5t-22.5 -9.5t-22.5 9.5t-9.5 22.5v54q0 25 13 50t25.5 39.5t36.5 38.5q18 17 26.5 26.5t17.5 23.5t9 24q0 13 -3.5 25.5t-9.5 23t-15 19.5t-19.5 15.5t-23 10t-25.5 3.5q-40 0 -68 -27.5t-28 -67.5q0 -13 -9.5 -22.5t-22.5 -9.5
q-7 0 -12.5 2.5t-10 7t-7 10.5t-2.5 12q0 32 12.5 61.5t34 51t51.5 34t62 12.5q66 0 113 -47t47 -114q0 -17 -5.5 -33t-18 -32.5t-21.5 -26.5t-26 -27z" />
    <glyph glyph-name="uniE63C" unicode="&#xe63c;" 
d="M962 579q0 10 -3.5 18.5t-8.5 14.5t-11 10.5t-12 7t-11 4t-8 2.5h-3h-786q-16 0 -28 -5.5t-17.5 -14t-8 -17t-2.5 -14.5l-1 -6v-562q0 -16 6 -27.5t14 -17t16 -8.5t14 -3l6 -1h787q17 0 29.5 6t17 14.5t7.5 17t2 14t0 6.5q1 512 1 561zM512 239l-324 324h648zM888 34
h-752v478l376 -376l376 376v-478z" />
    <glyph glyph-name="uniE63D" unicode="&#xe63d;" 
d="M904 -7h-546h-28h-210q-23 0 -39.5 16t-16.5 40v56v56v55q23 0 42.5 11.5t30.5 31t11 41.5q0 35 -24.5 59.5t-59.5 24.5v56v56v56q0 24 16.5 40t39.5 16h210h28h546q11 0 21.5 -4.5t18 -12t12 -17.5t4.5 -22v-84v-28v-56q-35 0 -59.5 -24.5t-24.5 -59t24.5 -59.5
t59.5 -25v-55v-84v-28q0 -16 -7.5 -28.5t-20.5 -20t-28 -7.5zM904 172q-38 17 -61 51.5t-23 77t23 77t61 51.5v95q0 8 -4 14.5t-10.5 10t-13.5 3.5h-504v-42q0 -5 -4 -9.5t-10 -4.5h-28q-6 0 -10 4.5t-4 9.5v42h-168q-8 0 -14 -3.5t-10 -10t-4 -14.5v-95q38 -17 61 -51.5
t23 -77t-23 -77t-61 -51.5v-95q0 -12 8.5 -20t19.5 -8h168v42q0 3 2 6.5t5 5.5t7 2h28q6 0 10 -4.5t4 -9.5v-42h504q7 0 13.5 3.5t10.5 10t4 14.5v95zM358 161h-28q-4 0 -7 1.5t-5 5t-2 6.5v84q0 4 2 7.5t5 5t7 1.5h28q2 0 4.5 -0.5t3.5 -1.5l4 -4q1 -1 1.5 -3t0.5 -5v-84
q0 -3 -2 -6.5t-5 -5t-7 -1.5zM358 328h-28q-14 0 -14 14v84q0 4 2 7.5t5 5t7 1.5h28q6 0 10 -4t4 -10v-84q0 -3 -2 -6.5t-5 -5.5t-7 -2z" />
    <glyph glyph-name="uniE63E" unicode="&#xe63e;" 
d="M935 400q5 3 9 6.5t6.5 6.5t4.5 6.5t3 6.5t1.5 7t0.5 7v9v150q0 30 -22 52t-53 22h-746q-20 0 -37.5 -10t-27.5 -27t-10 -37v-150q0 -19 4.5 -30t20.5 -19q14 -7 26.5 -15.5t23.5 -21t18 -29t7 -34.5q0 -75 -73 -99q-15 -10 -21 -23.5t-6 -26.5v-150q0 -30 22 -52t53 -22
h746q31 0 53 22t22 52v150q0 19 -5 28.5t-20 20.5q-41 22 -58 43.5t-17 56t16.5 56t58.5 44.5zM910 160v-134q0 -20 -14.5 -34.5t-35.5 -14.5h-696q-21 0 -35.5 14.5t-14.5 34.5v134q17 6 32.5 16t27.5 23.5t21 29t13.5 34t4.5 37.5q0 32 -12.5 60.5t-35 49t-51.5 30.5v134
q0 20 14.5 34.5t35.5 14.5h696q14 0 25.5 -6.5t18 -18t6.5 -24.5v-134q-44 -16 -71.5 -54t-27.5 -86q0 -24 7 -46.5t20.5 -40.5t31.5 -31.5t40 -21.5zM649 350h-94l102 109q8 9 0 18l-16 17q-8 9 -16 0l-113 -121l-113 121q-4 4 -8.5 4t-7.5 -4l-16 -17q-2 -2 -2.5 -4
t-0.5 -4.5t0.5 -5t2.5 -3.5l102 -110h-94q-3 0 -6 -2t-4.5 -4.5t-1.5 -6.5v-25q0 -2 1 -4.5t2.5 -4t4 -2.5t4.5 -1h112v-50h-112q-5 0 -8.5 -3.5t-3.5 -8.5v-25q0 -5 3.5 -9t8.5 -4h112v-87q0 -5 3.5 -8.5t9.5 -3.5h24q6 0 9.5 3.5t3.5 8.5v87h112q5 0 8.5 4t3.5 9v25
q0 5 -3.5 8.5t-8.5 3.5h-112v50h112q5 0 8.5 3.5t3.5 8.5v25q-1 11 -12 13z" />
    <glyph glyph-name="uniE63F" unicode="&#xe63f;" 
d="M512 -48l-10 4q-84 34 -167 100q-9 7 -17.5 14.5t-16.5 15.5t-16 15.5t-15 15.5l-14 16q-7 8 -13 16t-12 16.5t-11 16.5q-54 87 -54 182v346h26q7 0 20 0.5t47.5 2.5t65.5 5q135 15 168 48l19 19l18 -19q8 -7 23 -15t53 -17.5t92 -15.5q71 -8 134 -8h26v-346
q0 -95 -54 -182q-43 -67 -116 -126q-83 -66 -167 -100zM218 658v-294q0 -147 150 -267q67 -53 144 -88q8 4 17.5 8.5t25.5 13t31 18t34 22.5t36 27q149 119 149 266v294q-58 2 -112 8q-65 7 -110 19t-71 30q-53 -35 -181 -49q-31 -3 -60 -5t-53 -3zM559 649l-196 -335
l174 80l-43 -284l218 408l-160 -36z" />
    <glyph glyph-name="uniE640" unicode="&#xe640;" 
d="M512 749q-61 0 -119 -16t-107.5 -45t-91 -70.5t-70.5 -90.5t-45 -107t-16 -119q0 -92 35.5 -175t95.5 -143t143.5 -95.5t174.5 -35.5t174.5 35.5t143.5 95.5t95.5 143t35.5 174.5t-35.5 174.5t-95.5 143t-143.5 95.5t-174.5 35.5zM512 -77q-103 0 -190 50.5t-137.5 137.5
t-50.5 189.5t50.5 189.5t137.5 137.5t190 50.5t190 -50.5t137.5 -137.5t50.5 -189.5t-50.5 -189.5t-137.5 -137.5t-190 -50.5zM736 182h-364l78 -80q7 -7 9.5 -16t0 -18.5t-9.5 -16.5q-10 -11 -24.5 -11t-25.5 11l-133 136q-1 1 -2 3l-1 2l-4 4q-2 2 -3.5 5t-2.5 5.5
t-1.5 5.5t-0.5 6q0 10 5 18t13 12.5t18 4.5h448q15 0 25.5 -10t10.5 -25q0 -5 -1.5 -9.5t-3.5 -8.5t-5.5 -7t-7.5 -5.5t-8.5 -4t-9.5 -1.5zM736 348h-448q-8 0 -14.5 2.5t-11 7.5t-7.5 11.5t-3 13.5q0 15 10.5 25.5t25.5 10.5h363l-77 77q-11 10 -11 25t10.5 25t25 10
t25.5 -10l133 -134q1 0 1 -1l1 -1l3 -4q2 -1 3.5 -3t2.5 -5l2 -4q1 -3 1.5 -5.5t0.5 -5.5q0 -14 -10.5 -24.5t-25.5 -10.5z" />
    <glyph glyph-name="uniE641" unicode="&#xe641;" 
d="M670 641h36q17 0 33 -3t32 -9.5t29.5 -18.5t22.5 -29l71 -191q6 -2 9.5 -6.5t3.5 -10.5v-304q0 -29 -20.5 -50t-50.5 -21h-643q-30 0 -50.5 21t-20.5 50v304q0 13 13 17l75 201q33 50 108 50h36h316zM193 319v-214q0 -7 3 -13.5t7.5 -11.5t11 -8t14.5 -3h571
q15 0 25.5 10.5t10.5 25.5v214h-158q-14 -31 -38 -55t-57 -38t-69 -14q-27 0 -52.5 8t-46.5 22t-37.5 34t-26.5 43h-158zM286 569l-72 -178h86h107q0 -22 8.5 -42t23 -34t34.5 -22.5t41 -8.5q30 0 54.5 14t39 39t14.5 54h107h86l-72 178h-457z" />
    <glyph glyph-name="uniE642" unicode="&#xe642;" 
d="M513 737q-73 0 -141.5 -23t-123.5 -64.5t-96.5 -96.5t-64.5 -123.5t-23 -141.5q0 -91 35.5 -174t96 -143t143.5 -95.5t174 -35.5t174 35.5t143 95.5t95.5 143t35.5 174q0 171 -114 298q-109 123 -271 146q-32 4 -63 5zM783 414l-310 -317q-2 -3 -4 -5q-9 -9 -22 -9t-22 9
l-154 157q-5 4 -7 10t-2 12t2 12t7 10q9 10 22 10t22 -10l131 -133l293 298q9 10 22 10t22 -10q6 -6 8 -14t0 -16t-8 -14z" />
    <glyph glyph-name="uniE643" unicode="&#xe643;" 
d="M511 749q-61 0 -119 -16.5t-107 -45t-90.5 -70t-70.5 -91t-45 -107.5t-16 -119t16 -119t45 -107t70.5 -90.5t90.5 -70.5t107 -45t119 -16q92 0 175 35.5t143 95.5t95.5 143t35.5 174t-35.5 174t-95.5 143.5t-143 96t-175 35.5zM711 327v-80h-159v-39l160 1v-81h-160v-81
h-79v81l-160 -1v80l160 1l-1 38h-159v79l149 1l-167 166l56 57l160 -160l160 161l57 -56l-167 -168z" />
    <glyph glyph-name="uniE644" unicode="&#xe644;" 
d="M641 300q9 0 16.5 4.5t11.5 11.5t4 16t-4 16t-11.5 11.5t-16.5 4.5h-97v15l119 124q6 6 8 14.5t-0.5 16.5t-8.5 14t-14.5 8t-16.5 -0.5t-14 -8.5l-102 -107l-107 108l-6 4q-3 2 -6.5 3t-7 1.5t-7 0t-7 -1.5t-6.5 -3l-6 -4q-9 -10 -9.5 -23t9.5 -23l118 -118v-20h-95
q-13 0 -22.5 -9.5t-9.5 -22.5q0 -9 4.5 -16t11.5 -11.5t16 -4.5h95v-64h-95q-13 0 -22.5 -9.5t-9.5 -22.5q0 -9 4.5 -16t11.5 -11.5t16 -4.5h95v-95q0 -13 9.5 -22.5t22.5 -9.5t22.5 9.5t9.5 22.5v95h97q9 0 16.5 4.5t11.5 11.5t4 16q0 13 -9.5 22.5t-22.5 9.5h-97v64h97z
" />
    <glyph glyph-name="uniE645" unicode="&#xe645;" 
d="M726 373l-256 -259h-1q-1 -2 -7 -5l-1 -1q-1 -1 -2 -1q-6 -3 -12 -3q-7 1 -12 3q-1 0 -2 1t-2 1q-5 3 -7 5v0l-126 130q-9 9 -9 22.5t10 22.5q6 6 14 8t16.5 0t14.5 -9l103 -106l233 236q10 9 23 9.5t22.5 -9t9.5 -23t-9 -22.5z" />
    <glyph glyph-name="uniE646" unicode="&#xe646;" 
d="M753 197q11 0 20.5 5.5t15 15t5.5 20.5q0 20 -16 33h1q-24 19 -50.5 33.5t-54.5 25.5q37 32 58 77t21 95q0 94 -66.5 160.5t-160.5 66.5t-160 -66.5t-66 -160.5q0 -50 21 -95t58 -77q-118 -45 -191.5 -149.5t-73.5 -234.5q0 -11 5.5 -20.5t15 -15t20.5 -5.5q9 0 16.5 3
t13 8.5t9 13t3.5 16.5q0 89 44 165t120 120t165 44q110 0 198 -67q12 -11 29 -11zM526.5 358q-59.5 0 -102 42.5t-42.5 102t42.5 101.5t101.5 42q39 0 72.5 -19t52.5 -52.5t19 -72.5q0 -59 -42 -101.5t-101.5 -42.5zM910 59h-62v62q0 13 -9 22t-22 9t-22 -9t-9 -22v-62h-61
q-9 0 -16 -4t-11 -11t-4 -15.5t4 -15.5t11 -11.5t16 -4.5h61v-61q0 -13 9 -22t22 -9t22 9t9 22v61h62q13 0 22 9t9 22t-9 22t-22 9z" />
    <glyph glyph-name="uniE647" unicode="&#xe647;" 
d="M512 812q-104 0 -199 -40.5t-163.5 -109t-109 -163.5t-40.5 -199t40.5 -199t109 -163.5t163.5 -109t199 -40.5t199 40.5t163.5 109t109 163.5t40.5 199t-40.5 199t-109 163.5t-163.5 109t-199 40.5zM512 -165q-95 0 -181 36.5t-148.5 99t-99 148.5t-36.5 181t36.5 181
t99 148.5t148.5 99t181 36.5t181 -36.5t148.5 -99t99 -148.5t36.5 -181q0 -76 -23.5 -147t-66.5 -128t-100 -100t-128 -66.5t-147 -23.5z" />
    <glyph glyph-name="uniE648" unicode="&#xe648;" 
d="M514.5 795q-102.5 0 -196 -40t-161 -107.5t-107 -160.5t-39.5 -195.5t39.5 -195.5t107 -160.5t161 -107.5t196 -40t195.5 40t160.5 107.5t107.5 160.5t40 195.5t-40 195.5t-107.5 160.5t-160.5 107.5t-195.5 40zM400 85l-183 184l45 45l138 -137l343 343l46 -45z" />
    <glyph glyph-name="uniE649" unicode="&#xe649;" 
d="M416 702v-281h-280v281h280zM423 749h-294q-17 0 -28.5 -12t-11.5 -28v-295q0 -11 5 -20t14.5 -14.5t20.5 -5.5h294q11 0 20 5.5t14.5 14.5t5.5 20v295q0 11 -5.5 20t-14.5 14.5t-20 5.5zM416 179v-281h-280v281h280zM423 226h-294q-17 0 -28.5 -12t-11.5 -28v-295
q0 -16 11.5 -28t28.5 -12h294q17 0 28.5 12t11.5 28v295q0 11 -5.5 20t-14.5 14.5t-20 5.5zM888 702v-281h-280v281h280zM895 749h-294q-11 0 -20 -5.5t-14.5 -14.5t-5.5 -20v-295q0 -16 11.5 -28t28.5 -12h294q17 0 28.5 12t11.5 28v295q0 6 -2 12t-5.5 11t-8.5 9t-11 6
t-13 2zM89 325h845v-50h-845v50zM635 -135q0 -3 -0.5 -5t-1.5 -3.5t-3 -2.5l-4 -2q-2 -1 -4 -1h-23q-4 0 -7 2t-4.5 5t-1.5 7v348q0 5 3.5 9t9.5 4h23q6 0 9.5 -4t3.5 -9v-348zM935 -135q0 -3 -0.5 -5t-1.5 -3.5t-3 -2.5l-4 -2q-2 -1 -4 -1h-23q-4 0 -7 2t-4.5 5t-1.5 7v348
q0 5 3.5 9t9.5 4h23q4 0 7 -2t4.5 -5t1.5 -6v-348zM785 89q0 -5 -3.5 -9t-9.5 -4h-23q-4 0 -7 1.5t-4.5 5t-1.5 6.5v124q0 5 3.5 9t9.5 4h23q6 0 9.5 -4t3.5 -9v-124zM785 -135q0 -5 -3.5 -9t-9.5 -4h-23q-4 0 -7 1.5t-4.5 4.5t-1.5 7v123q0 6 3.5 10t9.5 4h23q4 0 7 -2
t4.5 -5t1.5 -7v-123z" />
    <glyph glyph-name="uniE64A" unicode="&#xe64a;" 
d="M360.5 723q-68.5 -25 -125 -69.5t-94 -102t-57.5 -123.5t-18 -138t27 -140q31 -85 92.5 -151t139 -101t166.5 -41.5t175 26.5q69 25 125 69.5t93.5 102t58 123.5t18 138t-27 140t-69 124.5t-102.5 94t-124 57.5t-137.5 18t-140 -27zM659.5 -99q-65.5 -24 -134 -26
t-131.5 17.5t-118 55.5t-98 89.5t-66.5 119t-25.5 134t17 131.5t55 118.5t90 98t119.5 66.5t134 26t131.5 -17.5t118 -55.5t97.5 -89.5t66.5 -119t26 -134.5t-17 -131.5t-55 -118t-90 -98t-119.5 -66.5zM378 674q-75 -27 -133.5 -81.5t-89 -122.5t-36.5 -147t23 -155
q22 -61 61.5 -110.5t90.5 -82.5t109 -51t121.5 -16t124.5 24q75 27 133.5 81.5t89 122.5t36.5 147t-23 155q-28 75 -82 133.5t-122.5 89.5t-147 37t-155.5 -24zM380 668q76 29 153 23t144.5 -36t121 -87.5t80.5 -131.5q21 -58 23 -120l-695 -253q-38 49 -59 107
q-21 59 -23 121.5t15.5 120t50 107.5t81.5 89t108 60zM646 -62q-119 -42 -235.5 -9.5t-194.5 124.5l686 249q0 -120 -69.5 -221t-186.5 -143zM185 342l6 -31l21 23l31 -4l-16 27l14 28l-31 -6l-22 22l-4 -31l-27 -15zM703 498l21 23l31 -4l-15 27l13 28l-30 -6l-23 21
l-3 -31l-28 -15l29 -12zM253 445l21 23l30 -4l-15 27l14 28l-31 -6l-23 21l-3 -31l-27 -14l28 -13zM573 562l21 23l31 -4l-16 27l14 28l-31 -7l-22 22l-3 -31l-28 -15l28 -13zM394 551l21 23l31 -5l-16 28l14 28l-31 -7l-22 22l-4 -31l-27 -15l28 -13zM257 294l36 13
l52 -144l23 8l-61 167l-56 -27zM484 211q24 8 32.5 29.5t-2.5 49.5l-17 49q-10 27 -30.5 38.5t-44.5 2.5t-32 -30.5t2 -49.5l17 -48q11 -28 31 -39q10 -6 21 -6.5t23 4.5zM412 313q-6 18 -2 31t18.5 18.5t26 -2t18.5 -25.5l21 -57q6 -18 2 -31.5t-18 -18.5q-7 -3 -13.5 -2
t-12.5 4q-12 8 -19 26zM520.5 397.5q-8.5 -21.5 1.5 -49.5l18 -48q10 -28 30.5 -39.5t44.5 -2.5t32 30.5t-2 49.5l-18 48q-10 28 -30 39t-44 2.5t-32.5 -30zM543 361q-6 18 -2 31t18 18q7 3 13.5 2.5t12.5 -4.5q12 -7 18 -25l21 -58q7 -18 3 -31t-19 -19q-14 -5 -26 2.5
t-18 25.5zM702 367q1 3 1.5 6t0 6t-1.5 6l-2 6q-4 9 -12.5 13.5t-18.5 0.5t-13.5 -12.5t-0.5 -18.5l2 -5q3 -10 11.5 -14t19 -0.5t14.5 12.5zM674.5 364.5q-4.5 2.5 -6.5 8.5l-2 5q-2 6 -0.5 11t6.5 7q3 1 5.5 1t4.5 -2q5 -3 7 -8l2 -6q1 -3 1 -5.5t-1 -4.5q-1 -5 -7 -7
q-5 -2 -9.5 0.5zM722 411l-22 -104l10 -2l22 104zM744 363q-10 -4 -14 -12q-1 -3 -1.5 -6t-0.5 -6t2 -6l2 -6q3 -10 11.5 -14t18.5 0t14 12q4 9 0 18l-2 6q-3 9 -11.5 13.5t-18.5 0.5zM766 339q2 -5 0 -10q-3 -5 -7 -7q-6 -2 -10 0.5t-6 8.5l-3 6v10q2 5 7.5 7t9.5 -1
q2 -1 3.5 -3t2.5 -5zM418 68l36 13l-5 14l-41 -15l-5 16l-15 -6l5 -15l-40 -15l5 -14l36 13q-7 -32 -25 -58q7 -4 11 -7q3 -1 4 -2q5 9 9 17l4 -13l22 8l7 -18l14 5l-6 18l21 8l-5 14l-21 -8l-10 28q21 -18 49 -27q4 11 6 17q-31 7 -56 27zM414 17l-21 -7q2 5 4.5 11t4 12
t2.5 12zM557 54q1 -5 -7 -8l-13 -5q-7 -2 -8 3l-6 14l-14 -5l6 -18q5 -13 21 -7l24 9q11 4 12 13q1 4 1 12q-5 1 -17 2q2 -6 1 -10zM528 60q1 -1 4 -2q9 -6 13 -9l9 13q-7 3 -14 8l37 13l-21 59l-37 -14v2v2v5l-18 -5v-4q1 -4 1 -6l-32 -11l22 -59l41 15zM488 105l58 21
l2 -6l-58 -21zM494 89l58 21l2 -6l-58 -21zM502 68l-3 6l58 21l2 -6zM565 71q12 -9 20 -18l11 11q-3 3 -8.5 7t-12.5 10zM491 22l14 -1q0 2 1 6q1 12 1 22l-15 -1q1 -13 -1 -26zM676 120l24 9l-4 12l-31 -11l-4 10l24 8l-14 40l-63 -22l15 -40l23 8l4 -10l-31 -11l5 -12
l22 8q-7 -18 -18 -30l2 -2q3 -1 5 -2.5t3.5 -2.5t2.5 -2q11 14 17 33l10 -29l15 6l-11 29q13 -12 33 -15q0 5 4 16q-21 2 -33 10zM632 143l-5 15l34 12l5 -14zM590 164q2 -17 1.5 -31t-2.5 -25q6 -9 11 -19q1 3 2 7q1 2 1 4v3l17 -46l14 5l-27 74q0 7 -0.5 14t-0.5 15z
M790 212h-12l17 6l-4 11l-24 -9l-5 4q0 1 -0.5 1.5t-1.5 0.5l-14 -8l4 -4l-21 -8l3 -11l15 6l-8 -7l2 -1l5 -3l-14 -5l3 -11l69 25l-3 11l-14 -5q1 2 1.5 3.5t1.5 3.5zM774 209q-1 -6 -3 -10l-13 -5l3 3q-2 1 -4 3q-2 1 -3 2h-2l23 9q-1 -1 -1 -2zM791 149l22 8l-13 36
l-59 -21l13 -36l22 8l2 -5l-29 -10l4 -10l29 10l4 -12l14 6l-4 11l28 10l-3 11l-29 -11zM757 166l34 13l1 -4l-34 -13zM763 150l-1 4l33 12l2 -4zM731 167l-2 28l-4 12l-33 -12l36 -99l12 5l-10 30q0 -1 1 -2.5t1 -2.5q1 -2 2 -3.5t1 -2.5q7 3 8 3q11 5 5 21q-2 5 -6 10.5
t-11 12.5zM733 134h-1q-2 -1 -3 -2l-20 55l8 3l2 -28q12 -8 16 -21q2 -5 -2 -7z" />
  </font>
</defs>
</svg>
